<?xml version="1.0" encoding="UTF-8"?>
<svg width="111px" height="105px" viewBox="0 0 111 105" version="1.1" xmlns="http://www.w3.org/2000/svg" xmlns:xlink="http://www.w3.org/1999/xlink">
    <!-- Generator: sketchtool 64 (101010) - https://sketch.com -->
    <title>E755F464-E533-4776-8363-AACD43C58B20</title>
    <desc>Created with sketchtool.</desc>
    <g id="Page-1" stroke="none" stroke-width="1" fill="none" fill-rule="evenodd">
        <g id="Game" transform="translate(-730.000000, -779.000000)" fill="#252429" fill-rule="nonzero">
            <g id="Carts" transform="translate(652.000000, 111.000000)">
                <g id="Group-5" transform="translate(0.000000, 577.000000)">
                    <g id="Group-4" transform="translate(40.000000, 0.000000)">
                        <g id="noun_Crocodile_86523" transform="translate(38.000000, 91.000000)">
                            <path d="M10.1028261,82.151087 C10.2888587,82.2777717 10.5159783,82.3496739 10.7876087,82.3496739 C11.0592391,82.3496739 11.272663,82.2777717 11.4575543,82.151087 C11.643587,82.0369565 11.7280435,81.8942935 11.7280435,81.7071196 C11.7280435,81.5222283 11.6424457,81.3658696 11.4575543,81.2369022 C11.2715217,81.1227717 11.0580978,81.0679891 10.7876087,81.0679891 C10.5171196,81.0679891 10.2888587,81.123913 10.1028261,81.2369022 C9.91679348,81.3658696 9.8323257,81.5222283 9.8323257,81.7071196 C9.83119565,81.8954348 9.91679348,82.0380978 10.1028261,82.151087 L10.1028261,82.151087 Z" id="Path"></path>
                            <path d="M95.167663,23.846413 C94.9599457,23.6386957 94.7305435,23.456087 94.5228261,23.2483696 C93.7672826,22.5852717 93.0117391,21.9438587 92.2345109,21.3241304 C90.285163,19.7867935 88.2913043,18.412663 86.23125,17.1971739 L82.1978804,15.5491304 L82.1978804,19.3530978 L78.7579891,19.3530978 L78.7579891,14.1270652 L63.6345652,7.91608696 L63.6345652,12.1115217 L60.1958152,12.1115217 L60.1958152,3.26527174 C59.9880978,2.92173913 59.7381522,2.57706522 59.4619565,2.2575 C58.2727174,0.882228261 56.8278261,0.194021739 55.1558152,0.194021739 C53.984837,0.194021739 52.9530978,0.51701087 52.0149457,1.17896739 C51.6029348,1.47798913 51.2126087,1.82152174 50.8473913,2.2575 C50.3680435,2.80646739 49.9982609,3.40336957 49.7232065,4.02081522 C49.6547283,4.18288043 49.5873913,4.34152174 49.518913,4.50244565 C49.4938043,4.59375 49.4504348,4.68505435 49.4264674,4.79918478 C49.1753804,5.55586957 49.0601087,6.35706522 49.0601087,7.25070652 C49.0601087,7.34201087 49.0601087,7.43331522 49.0601087,7.52576087 L52.8401087,7.59538043 C53.115163,8.16831522 53.2555435,8.78576087 53.2555435,9.47396739 C53.2555435,10.185 53.1140217,10.8503804 52.8184239,11.4461413 C52.5216848,11.99625 52.1313587,12.5007065 51.6040761,12.9595109 C50.505,13.9193478 49.1753804,14.4032609 47.6175,14.4032609 C46.815163,14.4032609 46.0813043,14.2879891 45.4182065,14.0346196 C44.7528261,13.7835326 44.1582065,13.44 43.6320652,12.9595109 C42.5318478,11.99625 41.9794565,10.826413 41.9794565,9.47396739 C41.9794565,8.71842391 42.1415217,8.03021739 42.483913,7.41277174 L7.30891304,6.83983696 L7.30891304,6.0375 C7.30891304,4.84597826 6.71086957,4.24907609 5.52163043,4.24907609 L2.40586957,4.24907609 C1.21320652,4.24907609 0.618586957,4.84483696 0.618586957,6.0375 L0.618586957,9.61206522 L47.7795652,29.7549457 L51.2148913,31.3128261 L55.6602717,33.1936957 L2.19929348,43.1835326 L50.1409239,42.7932065 L54.742663,47.3995109 L52.2934239,47.3995109 L52.2934239,50.8382609 L62.5811413,50.8382609 L68.2180435,53.0386957 L69.8227174,53.0386957 C69.8444022,53.0386957 69.8911957,53.0386957 69.915163,53.0386957 C69.9368478,53.0386957 69.9573913,53.0386957 69.9836413,53.0386957 L73.8092935,53.0386957 L74.6344565,43.5510326 C74.6584239,43.3467391 74.7280435,43.1846739 74.8901087,43.0705435 C75.0247826,42.9552717 75.1868478,42.8879348 75.3934239,42.9096196 C75.5760326,42.933587 75.7380978,43.0032065 75.8522283,43.1641304 C75.9663587,43.2999457 76.034837,43.4620109 76.0097283,43.665163 L75.1195109,53.7280435 L75.1195109,53.7953804 C75.0932609,53.9563043 75.0247826,54.1172283 74.8901087,54.2325 C74.7508696,54.348913 74.591087,54.4151087 74.430163,54.4151087 L69.9847826,54.4151087 C69.9596739,54.4151087 69.9379891,54.4151087 69.9163043,54.4151087 C69.892337,54.4151087 69.8444022,54.4151087 69.8238587,54.4151087 L69.8238587,58.1505978 L74.1756522,58.1505978 C74.1539674,58.7201087 74.1071739,59.2941848 74.0386957,59.8671196 L84.7418478,51.8243478 C84.9004891,51.7102174 85.0602717,51.6851087 85.2428804,51.7102174 C85.428913,51.7319022 85.5875543,51.8003804 85.7016848,51.9613043 C85.8158152,52.1222283 85.86375,52.2831522 85.8409239,52.4657609 C85.8158152,52.6483696 85.7256522,52.8092935 85.5658696,52.9234239 L73.7625,61.7925 C72.8711413,66.7172283 70.6935326,71.16375 67.1863043,75.1286413 C66.2938043,76.113587 65.3294022,77.0768478 64.2988043,78.0172826 C57.7226087,83.9029891 49.7483152,86.8635326 40.4204348,86.8635326 C33.1788587,86.8635326 26.763587,85.07625 21.1711957,81.5222283 C19.544837,80.4916304 18.0086413,79.3229348 16.5443478,78.0172826 C15.603913,77.1670109 14.7353804,76.3213043 13.9319022,75.4253804 C16.3617391,80.9949457 20.0253261,86.0600543 24.9295109,90.6663587 C27.1755978,92.7709239 29.5358152,94.6529348 31.9907609,96.2804348 L34.2825,92.2927174 L37.2590217,94.012663 L34.923913,98.0677174 C38.5875,100.402826 42.6882065,102.006359 47.2271739,102.902283 L48.4415217,98.3633152 L51.765,99.2592391 L50.5974457,103.611033 C53.6892391,104.137174 56.9202717,104.41337 60.2654348,104.41337 C60.3807065,104.41337 60.494837,104.41337 60.6101087,104.41337 C61.6875,104.41337 62.7671739,104.391685 63.8411413,104.318641 L63.8411413,99.5799457 L67.2798913,99.5799457 L67.2798913,104.0025 C71.8188587,103.450109 76.1021739,102.352174 80.1572283,100.702989 L78.9428804,96.1183696 L82.2675,95.2281522 L83.3403261,99.2592391 C87.2161957,97.3555435 90.8341304,94.9028804 94.2272283,91.9217935 L91.8453261,87.7994022 L94.8241304,86.0817391 L96.8157065,89.5204891 C100.04788,86.2883152 102.683152,82.8495652 104.745489,79.1608696 L101.100163,75.5178261 L103.533424,73.0902717 L106.394674,75.952663 C106.509946,75.6810326 106.625217,75.404837 106.739348,75.1275 C108.640761,70.7277717 109.764946,66.0290217 110.132446,61.0563587 L105.570652,60.1410326 L106.238315,56.7730435 L110.224891,57.5753804 L110.246576,57.5753804 C110.246576,57.5502717 110.246576,57.5034783 110.246576,57.46125 C110.246576,52.0526087 109.397446,46.9658152 107.702609,42.2191304 L103.508315,43.9630435 L102.179837,40.7753804 L106.420924,39.0348913 C104.791141,35.4603261 102.662609,32.092337 100.027337,28.9058152 C99.9794022,28.8624457 99.9326087,28.8156522 99.8869565,28.7688587 C99.8447283,28.7003804 99.7967935,28.6547283 99.7705435,28.6330435 C99.1097283,27.8307065 98.399837,27.0283696 97.664837,26.2728261 L95.1893478,29.9832065 L92.3235326,28.0817935 L95.167663,23.846413 L95.167663,23.846413 Z" id="Path"></path>
                            <polygon id="Path" points="19.7525543 24.821087 25.6165761 21.5683696 19.2686413 18.8646196"></polygon>
                            <polygon id="Path" points="32.4678261 24.502663 26.1427174 21.7977717 26.6015217 27.7770652"></polygon>
                            <polygon id="Path" points="12.1434783 15.8161957 12.6239674 21.7738043 18.4446196 18.521087"></polygon>
                            <polygon id="Path" points="11.5705435 15.56625 5.29108696 12.8830435 5.7498913 18.8178261"></polygon>
                            <polygon id="Path" points="2.90576087 41.8561957 8.42967391 40.8255978 5.54217391 37.4325"></polygon>
                            <polygon id="Path" points="11.6858152 36.2866304 9.04940217 40.7103261 14.5733152 39.678587"></polygon>
                            <polygon id="Path" points="18.2369022 35.0973913 15.67125 39.4742935 21.1027174 38.4425543"></polygon>
                            <polygon id="Path" points="27.839837 37.1574457 25.0676087 33.9252717 22.5247826 38.1663587"></polygon>
                            <polygon id="Path" points="29.1694565 36.9063587 34.349837 35.921413 31.619837 32.7577174"></polygon>
                            <polygon id="Path" points="33.2233696 24.821087 33.7072826 30.8494565 39.5952717 27.551087"></polygon>
                            <path d="M48.7633696,8.16945652 C48.419837,7.73347826 48.0295109,7.52690217 47.5490217,7.52690217 C47.06625,7.52690217 46.6530978,7.73347826 46.3095652,8.16945652 C45.9648913,8.60429348 45.8039674,9.13157609 45.8039674,9.75016304 C45.8039674,10.36875 45.9648913,10.8732065 46.3095652,11.3080435 C46.6530978,11.745163 47.06625,11.9745652 47.5490217,11.9745652 C48.0295109,11.9745652 48.419837,11.745163 48.7633696,11.3080435 C49.1069022,10.8732065 49.2895109,10.3676087 49.2895109,9.75016304 C49.2895109,9.13157609 49.1069022,8.60543478 48.7633696,8.16945652 L48.7633696,8.16945652 Z" id="Path"></path>
                            <polygon id="Path" points="48.6640761 33.2108152 51.4568478 32.8410326 47.7681522 31.147337 43.7130978 34.1489674"></polygon>
                            <polygon id="Path" points="41.1086413 34.6397283 38.4494022 31.5433696 36.0435326 35.5984239"></polygon>
                            <polygon id="Path" points="40.9933696 33.1640217 46.4236957 30.4591304 40.1453804 27.7770652"></polygon>
                        </g>
                    </g>
                </g>
            </g>
        </g>
    </g>
</svg>