<?xml version="1.0" encoding="UTF-8"?>
<svg width="188px" height="161px" viewBox="0 0 188 161" version="1.1" xmlns="http://www.w3.org/2000/svg" xmlns:xlink="http://www.w3.org/1999/xlink">
    <!-- Generator: sketchtool 64 (101010) - https://sketch.com -->
    <title>F38039DC-9B96-4CDE-9AB8-7C0704F9D10D</title>
    <desc>Created with sketchtool.</desc>
    <g id="Page-1" stroke="none" stroke-width="1" fill="none" fill-rule="evenodd">
        <g id="Game" transform="translate(-685.000000, -445.000000)" fill="#252429" fill-rule="nonzero">
            <g id="time" transform="translate(685.000000, 445.000000)">
                <g id="noun_gambling_749521">
                    <g id="Group">
                        <path d="M186.253689,36.6968846 C173.632622,40.7426282 167.324178,43.6181154 151.768222,48.2636154 C149.453733,48.9532308 146.784133,51.5988462 145.877556,54.1316154 C139.778,71.1609359 136.636311,77.6830256 128.339244,100.204192 C127.102622,103.556141 127.530844,105.950987 129.452622,105.158974 C142.370311,99.8343077 150.790622,94.1460256 164.529244,88.250859 C166.574267,87.3731667 169.427689,83.6304359 170.7416,80.4122308 C179.571333,58.7917436 179.278889,61.9242692 187.314844,41.6077821 C188.509689,38.5839231 188.133689,36.0950385 186.253689,36.6968846 Z M162.931244,66.4840897 C161.878444,68.8287821 159.227644,71.5726154 157.028044,72.5067308 C154.830533,73.4408462 153.965733,72.0699744 155.072844,69.5601923 C156.182044,67.0483205 158.826578,64.4256923 160.967689,63.6545769 C163.110889,62.8792821 163.986133,64.1373077 162.931244,66.4840897 Z" id="Shape"></path>
                        <path d="M99.9742222,11.5468205 C116.8796,25.4603333 125.792889,31.0086026 141.703956,43.5596026 C144.072756,45.4299231 149.129956,45.9837051 152.468,44.9242051 C174.898489,37.8190769 174.796133,36.9413846 186.358133,33.6186923 C188.079378,33.1255128 187.268889,31.1172692 184.5784,29.2678462 C166.515778,16.8589487 162.239822,13.3899744 146.278622,2.53166667 C143.903556,0.916294872 139.794711,-0.1035 137.471867,0.283102564 C121.849067,2.86602564 118.989378,2.94961538 100.625956,6.66726923 C97.8936889,7.22105128 97.4571111,9.47588462 99.9742222,11.5468205 Z M163.942267,23.3517821 C165.676044,22.806359 169.183289,23.7383846 171.802756,25.5083974 C174.422222,27.2825897 175.255689,29.2365 173.603378,29.7881923 C171.951067,30.3398846 168.351911,29.2971026 165.648889,27.516641 C162.945867,25.740359 162.204311,23.8951154 163.942267,23.3517821 Z M154.941244,26.3213077 C156.796178,25.6922949 160.338933,26.6264103 163.069111,28.4173205 C165.7972,30.2040513 166.745556,32.1955769 164.919867,32.8517564 C163.096267,33.5100256 159.156622,32.5842692 156.399289,30.7661923 C153.639867,28.9502051 153.090489,26.9482308 154.941244,26.3213077 Z M153.677467,36.8034615 C151.030844,37.704141 146.341289,36.9810897 143.661244,35.0856923 C140.9812,33.1902949 141.227689,30.8915769 143.797022,30.0515 C146.370533,29.2093333 150.366578,30.0744872 153.117644,31.9092821 C155.8708,33.7440769 156.324089,35.9027821 153.677467,36.8034615 Z M138.100622,6.11139744 C140.245911,5.70807692 144.154222,6.75294872 146.606578,8.41220513 C149.061022,10.0693718 149.274089,11.7704231 147.268756,12.2343462 C145.261333,12.700359 141.626667,11.7160897 139.032267,9.99414103 C136.437867,8.27428205 135.953244,6.51471795 138.100622,6.11139744 Z M127.334489,8.18651282 C129.442178,7.7685641 133.304533,8.9095641 135.951156,10.6607692 C138.597778,12.4119744 139.1388,14.1819872 137.118844,14.6856154 C135.100978,15.1913333 131.1676,14.1882564 128.435333,12.3492821 C125.703067,10.5082179 125.228889,8.60446154 127.334489,8.18651282 Z M115.561511,10.6398718 C118.105778,10.084 122.227156,11.2647051 124.976133,13.1433846 C127.7272,15.0220641 128.111556,16.9822436 125.552667,17.6530513 C122.995867,18.3196795 118.435822,17.3667564 115.6952,15.373141 C112.958756,13.3816154 113.019333,11.1957436 115.561511,10.6398718 Z" id="Shape"></path>
                        <path d="M110.638,56.8608205 C109.865111,53.4900641 106.6712,52.5037051 103.784356,54.3761154 C84.3848444,66.9396538 82.4004,69.6396026 60.6738667,83.4653462 C57.4381778,85.5237436 55.3116889,90.2528333 56.3665778,93.792859 C63.4520889,117.615936 67.4878222,128.545295 74.7655111,154.882333 C75.8496444,158.806872 80.3365778,159.126603 84.2093778,155.920936 C110.226489,134.377769 112.288222,131.523179 122.947822,122.242628 C124.535378,120.861308 125.337511,117.482192 124.612667,114.462513 C119.745556,94.2045385 115.837244,79.5324487 110.638,56.8608205 Z M77.5061333,99.9910385 C74.4793333,102.128846 70.6733778,101.138308 69.4263111,97.5481282 C68.1792444,93.9579487 69.8733333,89.2497564 72.8207556,87.2185256 C75.7702667,85.1831154 78.9662667,86.4787564 80.2906222,89.9602692 C81.6128889,93.4438718 80.5350222,97.8490513 77.5061333,99.9910385 Z M91.0630222,137.261615 C87.8273333,139.823641 83.7665333,139.083872 82.5048444,135.305615 C81.2452444,131.527359 83.1795556,126.344795 86.3504889,123.985474 C89.5256,121.621974 92.8344,122.834026 94.1587556,126.409577 C95.4852,129.989308 94.3049778,134.69959 91.0630222,137.261615 Z M98.1506222,108.214179 C95.8236,109.938218 92.6505778,108.613321 91.2865333,105.100462 C89.9204,101.579244 90.8771111,97.2451154 93.2417333,95.5231667 C95.6021778,93.8033077 98.4952889,95.3267308 99.8238222,98.845859 C101.152356,102.358718 100.475556,106.492231 98.1506222,108.214179 Z M103.095022,81.6117436 C100.740844,83.2563718 97.8665333,81.714141 96.6152889,78.2221795 C95.3640444,74.7302179 96.3144889,70.5674487 98.8399556,68.8204231 C101.363333,67.0754872 104.419378,68.446359 105.499333,72.0428077 C106.5772,75.6371667 105.445022,79.9671154 103.095022,81.6117436 Z M115.352622,117.762218 C113.493511,119.229218 110.961778,117.801923 109.729333,114.389372 C108.496889,110.976821 109.134,106.918538 111.172756,105.443179 C113.209422,103.967821 115.782933,105.652154 116.833644,109.070974 C117.886444,112.491885 117.207556,116.297308 115.352622,117.762218 Z" id="Shape"></path>
                        <path d="M3.40071111,77.8564744 C19.7901333,80.084141 24.6802222,81.0725897 44.9821333,83.9271795 C48.0026667,84.3513974 53.2562222,83.0578462 56.3206222,81.1311026 C76.9149778,68.1997692 84.9154222,64.3609103 102.182178,51.7597564 C104.751511,49.8873462 103.830311,48.1904744 100.634311,48.0838974 C79.1500889,47.3629359 79.6117333,47.0348462 58.5160444,45.8332436 C55.3785333,45.6556154 50.1897333,46.8948333 47.6057778,48.4705 C30.2492,59.0487821 26.0004,60.6077308 4.84413333,73.564141 C1.69617778,75.4929744 0.960888889,77.5242051 3.40071111,77.8564744 Z M75.0287111,55.7866923 C77.7192,54.0793718 81.9533778,52.7586538 84.7524889,52.9279231 C87.5495111,53.0971923 87.9401333,54.746 85.2538222,56.5348205 C82.5696,58.3194615 77.8299111,59.5127051 75.0245333,59.2661154 C72.2191556,59.0195256 72.3403111,57.4940128 75.0287111,55.7866923 Z M48.5562222,62.7288205 C51.3177333,61.1782308 55.4328444,60.1626154 57.8120889,60.4342821 C60.1913333,60.7059487 59.9887111,62.2189231 57.2251111,63.8301154 C54.4656889,65.4413077 50.1646667,66.5008077 47.7854222,66.1685385 C45.4040889,65.838359 45.7988889,64.2752308 48.5562222,62.7288205 Z M20.9808,69.3073333 C24.0222222,67.5644872 28.4799111,66.5530513 30.9803111,66.9020385 C33.4828,67.2489359 33.0545778,68.8475897 29.9609333,70.6071538 C26.8672889,72.3667179 22.2592,73.6310128 19.8047556,73.2673974 C17.3544889,72.9037821 17.9393778,71.0522692 20.9808,69.3073333 Z" id="Shape"></path>
                        <path d="M139.042711,45.4132051 C122.446489,33.1902949 116.998667,27.5563462 98.136,14.2843846 C95.3285333,12.3095769 92.0865778,13.9019615 91.2343111,17.2852564 C87.6915556,31.3387821 86.5364,35.9236795 84.5352444,42.7425128 C88.5166667,42.9535769 93.3044,43.1541923 100.788889,43.4049615 C106.157333,43.5867692 107.684311,46.6900385 108.093733,48.0170256 C108.154311,48.2155513 108.223244,48.5331923 108.273378,48.9072564 C111.665733,49.5320897 114.356222,52.1484487 115.195956,55.8159487 C118.389867,69.7482692 121.040667,80.4185 123.846044,91.7198333 C124.424667,94.0561667 125.011644,96.4133974 125.598622,98.7957051 C125.703067,98.5700128 125.815867,98.3505897 125.893156,98.1019103 C132.913911,75.3237051 133.904044,76.5859103 141.461644,54.9842308 C142.587556,51.7681154 141.513867,47.2312821 139.042711,45.4132051 Z M122.786978,60.8898462 C120.221822,61.0653846 117.263956,58.7186026 116.234133,55.7219103 C115.202222,52.7252179 116.468089,50.0524359 119.035333,49.6219487 C121.602578,49.1893718 124.462267,51.4170385 125.496267,54.6686795 C126.526089,57.9224103 125.352133,60.7143077 122.786978,60.8898462 Z" id="Shape"></path>
                        <path d="M52.9282667,96.9588205 C51.6749333,92.6602179 47.5452,88.2968333 44.3721778,87.8475385 C23.0550667,84.8257692 24.4671556,84.7568077 4.03782222,81.7726538 C0.998488889,81.3296282 -0.839733333,84.1403333 0.380177778,87.8120128 C8.56653333,112.500244 11.0711111,118.664987 18.0417333,140.293833 C19.0799111,143.514128 22.3949778,146.928769 25.2024444,147.714513 C44.0609333,152.997385 49.0053333,155.436115 67.6277778,160.670923 C70.3997333,161.450397 71.8724,158.570731 70.782,154.685897 C63.4646222,128.58291 61.3464889,125.857885 52.9282667,96.9588205 Z M19.6313778,107.025115 C16.9993778,106.460885 13.7365333,103.286564 12.5980889,99.7486282 C11.4596444,96.2065128 12.8926222,93.5462692 15.4995556,94.0415385 C18.1106667,94.5347179 20.9912444,98.0872821 22.1505778,101.698359 C23.3057333,105.305256 22.2654667,107.593526 19.6313778,107.025115 Z M30.2262222,140.275026 C27.5336444,139.562423 24.3522667,136.223013 23.3370667,132.990179 C22.3239556,129.757346 23.8634667,127.757462 26.5309778,128.392744 C29.1984889,129.025936 32.0372889,132.093679 33.0733778,135.401744 C34.1115556,138.707718 32.9188,140.985538 30.2262222,140.275026 Z M44.4745333,112.588013 C41.7924,112.021692 38.8575111,108.788859 37.5895556,105.037769 C36.3257778,101.2825 37.1655111,98.3046154 39.8455556,98.8019744 C42.5297778,99.2972436 46.1080444,103.169538 47.3739111,106.993769 C48.6356,110.813821 47.1587556,113.156423 44.4745333,112.588013 Z M56.4605778,147.49091 C53.7763556,146.782487 50.7558222,143.198577 49.6069333,139.737962 C48.4559556,136.279436 49.5630667,134.12909 52.2410222,134.760192 C54.9231556,135.391295 58.2027111,138.60741 59.3536889,142.139077 C60.5067556,145.672833 59.1427111,148.197244 56.4605778,147.49091 Z" id="Shape"></path>
                    </g>
                </g>
            </g>
        </g>
    </g>
</svg>