<?xml version="1.0" encoding="UTF-8"?>
<svg width="105px" height="105px" viewBox="0 0 105 105" version="1.1" xmlns="http://www.w3.org/2000/svg" xmlns:xlink="http://www.w3.org/1999/xlink">
    <!-- Generator: sketchtool 64 (101010) - https://sketch.com -->
    <title>9AD9E800-D80B-46D6-B993-C056E31FCF7F</title>
    <desc>Created with sketchtool.</desc>
    <g id="Page-1" stroke="none" stroke-width="1" fill="none" fill-rule="evenodd">
        <g id="Game" transform="translate(-1307.000000, -202.000000)" fill="#252429" fill-rule="nonzero">
            <g id="Carts" transform="translate(652.000000, 111.000000)">
                <g id="draw" transform="translate(566.000000, 0.000000)">
                    <g id="Group-4" transform="translate(40.000000, 0.000000)">
                        <g id="noun_paint_818869" transform="translate(49.000000, 91.000000)">
                            <g id="Group">
                                <path d="M47.1692308,37.4769231 L25.2,102.092308 C24.8769231,102.9 25.3615385,103.707692 26.0076923,104.030769 C26.8153846,104.353846 27.6230769,103.869231 27.9461538,103.223077 L53.4692308,39.9 L47.1692308,37.4769231 Z" id="Path"></path>
                                <path d="M87.8769231,17.1230769 C66.2307692,-4.52307692 31.1769231,-4.52307692 9.53076923,17.1230769 C-13.7307692,40.3846154 14.5384615,42.3230769 36.0230769,59.9307692 L45.2307692,33.1153846 L45.7153846,33.2769231 C45.5538462,31.9846154 45.5538462,30.8538462 46.0384615,29.5615385 C46.6846154,27.9461538 47.9769231,26.8153846 49.2692308,25.5230769 L50.0769231,24.8769231 C51.2076923,23.9076923 52.3384615,22.6153846 53.6307692,20.6769231 C54.2769231,19.5461538 55.4076923,18.9 56.7,18.9 L58.1538462,18.9 L59.2846154,20.0307692 C59.7692308,20.6769231 61.0615385,21.9692308 60.4153846,30.6923077 C60.2538462,33.1153846 59.9307692,34.0846154 59.7692308,34.5692308 C59.2846154,35.7 58.6384615,36.6692308 57.6692308,37.4769231 L58.1538462,37.6384615 L45.2307692,69.1384615 C62.8384615,90.4615385 65.1,118.407692 87.8769231,95.6307692 C109.684615,73.9846154 109.684615,38.7692308 87.8769231,17.1230769 Z M19.8692308,35.2153846 C15.1846154,35.2153846 11.3076923,31.3384615 11.3076923,26.6538462 C11.3076923,21.9692308 15.1846154,18.0923077 19.8692308,18.0923077 C24.5538462,18.0923077 28.4307692,21.9692308 28.4307692,26.6538462 C28.4307692,31.3384615 24.5538462,35.2153846 19.8692308,35.2153846 Z M43.9384615,25.2 C39.2538462,25.2 35.3769231,21.3230769 35.3769231,16.6384615 C35.3769231,11.9538462 39.2538462,8.07692308 43.9384615,8.07692308 C48.6230769,8.07692308 52.5,11.9538462 52.5,16.6384615 C52.5,21.3230769 48.6230769,25.2 43.9384615,25.2 Z M86.4230769,33.4384615 C91.1076923,33.4384615 94.9846154,37.3153846 94.9846154,42 C94.9846154,46.6846154 91.1076923,50.5615385 86.4230769,50.5615385 C81.7384615,50.5615385 77.8615385,46.6846154 77.8615385,42 C77.8615385,37.1538462 81.7384615,33.4384615 86.4230769,33.4384615 Z M62.0307692,21.6461538 C62.0307692,16.9615385 65.9076923,13.0846154 70.5923077,13.0846154 C75.2769231,13.0846154 79.1538462,16.9615385 79.1538462,21.6461538 C79.1538462,26.3307692 75.2769231,30.2076923 70.5923077,30.2076923 C65.7461538,30.3692308 62.0307692,26.4923077 62.0307692,21.6461538 Z M74.1461538,95.6307692 C69.4615385,95.6307692 65.5846154,91.7538462 65.5846154,87.0692308 C65.5846154,82.3846154 69.4615385,78.5076923 74.1461538,78.5076923 C78.8307692,78.5076923 82.7076923,82.3846154 82.7076923,87.0692308 C82.7076923,91.7538462 78.8307692,95.6307692 74.1461538,95.6307692 Z M86.4230769,76.2461538 C81.7384615,76.2461538 77.8615385,72.3692308 77.8615385,67.6846154 C77.8615385,63 81.7384615,59.1230769 86.4230769,59.1230769 C91.1076923,59.1230769 94.9846154,63 94.9846154,67.6846154 C95.1461538,72.3692308 91.2692308,76.2461538 86.4230769,76.2461538 Z" id="Shape"></path>
                                <path d="M56.3769231,33.6 C56.5384615,33.1153846 56.7,31.9846154 56.8615385,30.5307692 C57.1846154,26.8153846 57.1846154,21.3230769 56.2153846,22.6153846 C54.7615385,24.8769231 53.3076923,26.3307692 52.1769231,27.4615385 C50.7230769,28.9153846 49.4307692,29.7230769 49.1076923,30.8538462 C48.7846154,31.5 48.7846154,32.3076923 48.9461538,32.9538462 L55.0846154,35.2153846 C55.5692308,34.8923077 56.0538462,34.2461538 56.3769231,33.6 Z" id="Path"></path>
                            </g>
                        </g>
                    </g>
                </g>
            </g>
        </g>
    </g>
</svg>