<?xml version="1.0" encoding="UTF-8"?>
<svg width="173px" height="86px" viewBox="0 0 173 86" version="1.1" xmlns="http://www.w3.org/2000/svg" xmlns:xlink="http://www.w3.org/1999/xlink">
    <!-- Generator: sketchtool 64 (101010) - https://sketch.com -->
    <title>F62C8AF9-FA73-4A0B-A8B9-7942443B8827</title>
    <desc>Created with sketchtool.</desc>
    <defs>
        <rect id="path-1" x="0" y="0" width="173" height="86" rx="10"></rect>
        <text id="text-3" font-family="Montserrat-Black, Montserrat" font-size="32" font-weight="700" fill="#FFFFFF">
            <tspan x="29" y="58">FINISH</tspan>
        </text>
        <filter x="-6.0%" y="-12.8%" width="112.1%" height="135.9%" filterUnits="objectBoundingBox" id="filter-4">
            <feOffset dx="0" dy="2" in="SourceAlpha" result="shadowOffsetOuter1"></feOffset>
            <feGaussianBlur stdDeviation="2" in="shadowOffsetOuter1" result="shadowBlurOuter1"></feGaussianBlur>
            <feColorMatrix values="0 0 0 0 0.28627451   0 0 0 0 0.28627451   0 0 0 0 0.28627451  0 0 0 1 0" type="matrix" in="shadowBlurOuter1"></feColorMatrix>
        </filter>
    </defs>
    <g id="Page-1" stroke="none" stroke-width="1" fill="none" fill-rule="evenodd">
        <g id="Game" transform="translate(-402.000000, -138.000000)">
            <g id="Table" transform="translate(44.000000, 138.000000)">
                <g id="Group-11" transform="translate(358.000000, 0.000000)">
                    <g id="noun_start-up_2984184">
                        <mask id="mask-2" fill="white">
                            <use xlink:href="#path-1"></use>
                        </mask>
                        <use id="Mask" fill="#FFC65E" xlink:href="#path-1"></use>
                        <g id="noun_Flag_1423997" opacity="0.138997396" mask="url(#mask-2)">
                            <g transform="translate(16.000000, 11.000000)" id="Group">
                                <g>
                                    <polygon id="Path" fill="#000000" fill-rule="nonzero" points="55.0243902 9.05172414 76.9481707 99.5689655 81.2469512 98.2758621 58.8932927 8.18965517"></polygon>
                                    <path d="M53.304878,10.3448276 C42.9878049,8.18965517 28.8018293,1.72413793 24.0731707,12.0689655 C26.652439,22.8448276 29.2317073,33.6206897 31.8109756,44.3965517 C39.1189024,39.6551724 49.8658537,43.5344828 61.472561,44.8275862 L53.304878,10.3448276 Z" id="Path" fill="#000000"></path>
                                    <path d="M38.2591463,50 L36.5396341,44.3965517 C35.25,44.8275862 33.9603659,45.2586207 32.6707317,46.1206897 L30.9512195,47.4137931 L38.2591463,50 Z" id="Path" fill="#000000"></path>
                                    <path d="M23.2134146,17.6724138 C15.4756098,17.6724138 7.73780488,17.6724138 0,17.6724138 C4.29878049,23.7068966 8.59756098,29.7413793 12.8963415,35.7758621 C9.88719512,41.8103448 7.30792683,47.4137931 4.29878049,53.4482759 C18.4847561,58.1896552 31.3810976,55.6034483 39.1189024,52.1551724 L30.9512195,49.5689655 L30.5213415,47.4137931 L30.5213415,47.4137931 L30.5213415,47.4137931 L30.5213415,47.4137931 L30.5213415,47.4137931 L30.5213415,47.4137931 L30.5213415,47.4137931 L30.5213415,47.4137931 L30.5213415,47.4137931 L30.5213415,47.4137931 L30.0914634,44.8275862 C27.5121951,35.7758621 25.3628049,26.7241379 23.2134146,17.6724138 Z" id="Path" fill="#000000"></path>
                                    <path d="M55.4542683,1.72413793 C53.7347561,2.15517241 52.875,3.87931034 52.875,5.60344828 C53.304878,6.03448276 53.7347561,6.89655172 54.5945122,7.32758621 L58.4634146,6.03448276 C58.8932927,5.60344828 59.3231707,4.74137931 58.8932927,3.87931034 C58.4634146,2.15517241 56.7439024,1.29310345 55.4542683,1.72413793 Z" id="Path" fill="#000000"></path>
                                    <polygon id="Path" fill="#000000" fill-rule="nonzero" points="85.9756098 7.75862069 73.0792683 60.7758621 70.929878 51.7241379 81.6768293 6.89655172"></polygon>
                                    <polygon id="Path" fill="#000000" fill-rule="nonzero" points="69.6402439 75 64.0518293 98.2758621 59.7530488 96.9827586 67.4908537 65.5172414"></polygon>
                                    <path d="M87.695122,9.05172414 C98.0121951,6.89655172 111.768293,0.862068966 116.926829,11.2068966 C114.347561,21.9827586 111.768293,32.3275862 109.189024,43.1034483 C101.881098,38.362069 90.7042683,42.6724138 79.527439,43.5344828 L87.695122,9.05172414 Z" id="Path" fill="#000000"></path>
                                    <path d="M102.740854,48.7068966 L104.030488,43.5344828 C105.75,43.5344828 107.039634,43.9655172 107.89939,44.8275862 L110.04878,46.1206897 L102.740854,48.7068966 Z" id="Path" fill="#000000"></path>
                                    <path d="M117.786585,16.3793103 C125.52439,16.3793103 133.262195,16.3793103 141,16.3793103 C136.70122,22.4137931 132.402439,28.4482759 128.103659,34.4827586 C130.682927,40.5172414 133.692073,46.5517241 136.70122,52.1551724 C122.515244,57.3275862 109.618902,54.3103448 101.881098,50.862069 L110.04878,48.2758621 L110.478659,46.5517241 L110.478659,46.1206897 L110.478659,46.1206897 L110.478659,46.1206897 L110.478659,46.1206897 L110.478659,46.1206897 L110.478659,46.1206897 L110.478659,46.1206897 L110.478659,46.1206897 L110.478659,46.1206897 L110.908537,43.5344828 C113.057927,34.4827586 115.637195,25.4310345 117.786585,16.3793103 Z" id="Path" fill="#000000"></path>
                                    <path d="M85.5457317,0.431034483 C87.2652439,0.862068966 88.125,2.5862069 87.695122,4.31034483 C87.695122,5.17241379 87.2652439,5.60344828 86.4054878,6.03448276 L82.1067073,5.17241379 C82.1067073,4.31034483 81.6768293,3.44827586 82.1067073,2.5862069 C82.5365854,1.29310345 83.8262195,5.55111512e-17 85.5457317,0.431034483 Z" id="Path" fill="#000000"></path>
                                </g>
                            </g>
                        </g>
                    </g>
                    <g id="FINISH" fill="#FFFFFF" fill-opacity="1">
                        <use filter="url(#filter-4)" xlink:href="#text-3"></use>
                        <use xlink:href="#text-3"></use>
                    </g>
                </g>
            </g>
        </g>
    </g>
</svg>