<?xml version="1.0" encoding="UTF-8"?>
<svg width="115px" height="105px" viewBox="0 0 115 105" version="1.1" xmlns="http://www.w3.org/2000/svg" xmlns:xlink="http://www.w3.org/1999/xlink">
    <!-- Generator: sketchtool 64 (101010) - https://sketch.com -->
    <title>E28D144F-810E-4F67-8E6D-D9CD36601B2A</title>
    <desc>Created with sketchtool.</desc>
    <g id="Page-1" stroke="none" stroke-width="1" fill="none" fill-rule="evenodd">
        <g id="Game" transform="translate(-1298.000000, -778.000000)" fill="#252429" fill-rule="nonzero">
            <g id="Carts" transform="translate(652.000000, 111.000000)">
                <g id="Group-5" transform="translate(566.000000, 577.000000)">
                    <g id="Group-4" transform="translate(40.000000, 0.000000)">
                        <g id="noun_joker-face_1608037" transform="translate(40.000000, 90.000000)">
                            <path d="M39.2426087,63.105 L74.8901087,63.105 C74.5728261,71.8998913 72.408913,81.2403261 67.7752174,88.7158696 C65.8327174,91.8498913 61.2469565,97.6477174 57.0652174,97.6477174 C52.8834783,97.6477174 48.3,91.8521739 46.3552174,88.7158696 C41.7238043,81.2403261 39.5598913,71.8998913 39.2426087,63.105 M39.0234783,33.7118478 L16.4895652,26.1016304 L6.03065217,47.4782609 C3.37597826,45.9854348 0,47.9233696 0,51.03 C0,53.2715217 1.81695652,55.0861957 4.06304348,55.0861957 C7.01902174,55.0861957 8.33152174,52.6780435 7.99369565,50.0096739 L22.6526087,44.583913 L31.8903261,58.3343478 L32.655,59.5007609 L32.7554348,63.011413 C33.506413,87.1454348 46.305,104.128043 57.0697826,104.128043 C67.8322826,104.128043 80.6331522,87.1454348 81.3795652,63.011413 L81.4480435,59.4984783 L82.2446739,58.3320652 L91.4869565,44.5816304 L106.14587,50.0073913 C105.808043,52.6757609 107.115978,55.083913 110.074239,55.083913 C112.315761,55.083913 114.135,53.2692391 114.135,51.0277174 C114.135,47.9142391 110.76587,45.9854348 108.10663,47.4759783 L97.6477174,26.0993478 L70.9275,35.1932609 L71.7515217,19.9020652 L86.5976087,17.1469565 C86.9377174,18.2517391 87.7480435,19.2104348 88.9030435,19.6966304 C90.9688043,20.5640217 93.345,19.5961957 94.2192391,17.5281522 C95.0866304,15.4623913 94.1165217,13.0816304 92.0484783,12.2119565 C90.2497826,11.4541304 88.2159783,12.0932609 87.1454348,13.638587 L67.5697826,0.869673913 L39.0234783,33.7118478 Z M55.4491304,74.2213043 C52.1895652,69.9117391 47.9370652,68.8046739 42.5797826,71.2036957 C46.1269565,77.0266304 50.441087,77.8803261 55.4491304,74.2213043 Z M71.5506522,71.2036957 C66.1933696,68.8046739 61.9408696,69.9117391 58.6813043,74.2213043 C63.6893478,77.8803261 68.0034783,77.0266304 71.5506522,71.2036957 Z M66.7069565,82.7856522 C60.3065217,86.7802174 53.823913,86.7802174 47.4234783,82.7856522 C50.1991304,87.7183696 53.643587,92.4525 57.0811957,92.4456596 C60.5096739,92.4388043 63.9404348,87.7023913 66.7069565,82.7856522 Z M75.5840217,56.6201087 L38.546413,56.6201087 L37.5032609,55.0656522 L25.1863043,36.7271739 L17.0168478,39.753913 L19.8061957,34.0542391 L41.0686957,41.2353261 L68.7521739,9.38380435 L74.1117391,12.8761957 L65.5565217,14.4694565 L63.9427174,44.4286957 L94.3333696,34.0702174 L97.113587,39.7561957 L88.9441304,36.7294565 L76.2619565,55.6157609 L75.5840217,56.6201087 Z" id="Shape"></path>
                        </g>
                    </g>
                </g>
            </g>
        </g>
    </g>
</svg>