<?xml version="1.0" encoding="UTF-8"?>
<svg width="105px" height="105px" viewBox="0 0 105 105" version="1.1" xmlns="http://www.w3.org/2000/svg" xmlns:xlink="http://www.w3.org/1999/xlink">
    <!-- Generator: sketchtool 64 (101010) - https://sketch.com -->
    <title>C2740349-74A3-410F-8A8D-7C6112E24989</title>
    <desc>Created with sketchtool.</desc>
    <g id="Page-1" stroke="none" stroke-width="1" fill="none" fill-rule="evenodd">
        <g id="Game" transform="translate(-1021.000000, -200.000000)" fill="#252429" fill-rule="nonzero">
            <g id="Carts" transform="translate(652.000000, 111.000000)">
                <g id="mine" transform="translate(283.000000, 0.000000)">
                    <g id="Group-4" transform="translate(40.000000, 0.000000)">
                        <g id="noun_Mine_965385" transform="translate(46.000000, 89.000000)">
                            <path d="M101.579723,49.924661 L95.678392,48.3601205 C94.9669491,48.1690996 94.224124,48.1272165 93.4959469,48.2370668 C92.7456316,42.3406258 90.7192163,36.681821 87.5596963,31.6599699 L92.6055093,23.0462079 C93.7752999,21.059769 93.3038917,19.899548 92.7102667,19.2842793 C92.1166416,18.6690105 90.9643106,18.1767956 88.9739207,19.2842793 L81.1520376,23.7669513 C74.4246243,17.2762858 65.7213744,13.2571453 56.4467593,12.3581115 L53.8802039,2.70718232 C53.2516598,0.474635861 52.1342479,0 51.2438103,0 L51.2438103,0 C50.3882918,0 49.2534204,0.474635861 48.6423358,2.70718232 L45.9884826,12.5866399 C37.2143545,13.8570782 29.0725571,17.9158172 22.7498074,24.1712707 L14.2993801,19.3194375 C12.3089902,18.1767956 11.1741188,18.6690105 10.5630341,19.3194375 C9.95194953,19.9698644 9.49800095,21.0773481 10.6677915,23.0813661 L16.2024722,32.4686087 C13.3085198,37.2981541 11.4638494,42.6903178 10.7900084,48.2898041 C10.0606389,48.1856778 9.31779877,48.2335451 8.60756336,48.430437 L2.70623189,49.9949774 C0.453948575,50.5047715 0,51.6474134 0,52.5087896 C0,53.3701657 0.471408136,54.5128076 2.68877233,55.1104972 L8.48534644,56.6223004 C9.15159256,56.8032704 9.83807355,56.8977909 10.528115,56.903566 L10.650332,56.903566 C11.1549897,62.7101445 12.8936746,68.3396091 15.7485236,73.4103466 L10.6677915,81.9889503 C9.49800095,83.9929684 9.96940909,85.1356102 10.5630341,85.750879 C10.9745593,86.1777269 11.5436827,86.4133019 12.1343946,86.4013059 C12.9027616,86.3649204 13.648658,86.1287176 14.2993801,85.7157207 L21.6498551,81.4967353 C28.206207,88.5257908 36.9803674,93.0485225 46.4773503,94.2943245 L48.6423358,102.310397 C49.2359608,104.542943 50.3882918,105 51.2438103,105 C52.0993288,105 53.2342002,104.525364 53.8452848,102.310397 L55.9578916,94.4701155 C65.9548402,93.6148811 75.3039546,89.1363061 82.2694494,81.8658965 L88.9564611,85.6981416 C89.6071832,86.1111385 90.3530797,86.3473413 91.1214466,86.3837268 C91.7121586,86.3957228 92.281282,86.1601478 92.6928071,85.7332998 C93.2864322,85.1180311 93.7578403,83.9753893 92.5880497,81.9713712 L88.0834831,74.2541436 C91.2330177,68.9625921 93.1381731,63.015571 93.6530829,56.8684078 L93.7752999,56.8684078 C94.4521663,56.8711481 95.1267057,56.788468 95.7831493,56.6223004 L101.544804,55.0929181 C103.779628,54.5128076 104.233577,53.3350075 104.233577,52.5087896 C104.233577,51.6825716 103.814547,50.5047715 101.579723,49.924661 Z M72.8936654,32.5740834 L74.4475663,31.677549 L88.0311044,23.890005 L84.0154055,30.7634355 L84.0154055,30.7634355 L79.3187837,38.7970869 C79.205376,39.1041987 78.9317216,39.3223052 78.6088109,39.3629454 C78.2859002,39.4035857 77.9673433,39.2600124 77.7823424,38.9904571 L72.7016102,33.9628327 C72.4428821,33.7970841 72.3035789,33.4949192 72.3448454,33.1889676 C72.3861118,32.883016 72.6004052,32.6291991 72.8936654,32.5389252 L72.8936654,32.5740834 Z M46.7043245,23.2044199 L51.2088912,6.48669011 L53.3389576,14.3972878 L53.3389576,14.3972878 L55.2944283,21.6750377 L55.6959982,23.1868408 L55.6959982,23.1868408 C55.8342489,23.4681265 55.8022781,23.8039908 55.6134806,24.0537171 C55.4246831,24.3034434 55.1116609,24.4239084 54.8055606,24.3646409 L47.6296813,24.3646409 C47.323581,24.4239084 47.0105588,24.3034434 46.8217613,24.0537171 C46.6329638,23.8039908 46.600993,23.4681265 46.7392437,23.1868408 L46.7043245,23.2044199 Z M30.3447163,72.4259166 L21.0736896,77.6996484 L21.0736896,77.6996484 L15.2421964,81.1275741 L23.9719767,66.2204922 C24.1075661,65.9357044 24.3646432,65.7286345 24.6703591,65.6579608 L24.6703591,65.6579608 C24.952909,65.6812706 25.2156097,65.8135203 25.4036606,66.027122 L30.4669332,71.0547464 L30.4669332,71.0547464 C30.7256614,71.220495 30.8649645,71.5226599 30.8236981,71.8286115 C30.7824316,72.1345631 30.5681383,72.38838 30.274878,72.4786539 L30.3447163,72.4259166 Z M30.5193119,33.9804119 L25.4560393,39.0080362 C25.2710384,39.2775915 24.9524815,39.4211648 24.6295708,39.3805246 C24.3066601,39.3398843 24.0330057,39.1217778 23.919598,38.814666 L23.919598,38.6740331 L15.2247368,23.890005 L22.2085611,27.862883 L22.2085611,27.862883 L30.4320141,32.5740834 C30.7252743,32.6643573 30.9395677,32.9181742 30.9808341,33.2241258 C31.0221005,33.5300774 30.8827974,33.8322423 30.6240693,33.997991 L30.5193119,33.9804119 Z M55.7134578,81.7955801 L51.2088912,98.5133099 L49.4629351,92.2551482 L49.4629351,92.2551482 L46.6519459,81.8131592 C46.5136952,81.5318735 46.545666,81.1960092 46.7344635,80.9462829 C46.923261,80.6965566 47.2362832,80.5760916 47.5423835,80.6353591 L54.7706415,80.6353591 C55.0767418,80.5760916 55.389764,80.6965566 55.5785615,80.9462829 C55.7673589,81.1960092 55.7993298,81.5318735 55.6610791,81.8131592 L55.7134578,81.7955801 Z M51.2438103,57.7825213 C48.3678824,57.7149384 46.0842956,55.3247254 46.1287857,52.4286638 C46.1732758,49.5326023 48.5291909,47.214642 51.4058191,47.2366458 C54.2824472,47.2586495 56.6031122,49.6123817 56.6038956,52.5087896 C56.6042794,53.929054 56.035689,55.2894392 55.0268042,56.2820704 C54.0179194,57.2747016 52.6540324,57.8156609 51.2438103,57.7825213 L51.2438103,57.7825213 Z M82.8456149,78.1391261 L82.8456149,78.1391261 L72.8936654,72.4434957 C72.6004052,72.3532218 72.3861118,72.0994049 72.3448454,71.7934533 C72.3035789,71.4875017 72.4428821,71.1853368 72.7016102,71.0195881 L75.4427613,68.3299849 L77.7998019,66.0095429 C77.9878529,65.7959412 78.2505536,65.6636915 78.5331035,65.6403817 L78.5331035,65.6403817 C78.8388194,65.7110554 79.0958965,65.9181253 79.2314859,66.2029131 L79.8949492,67.345555 L87.9438066,81.1275741 L82.8456149,78.1391261 Z" id="Shape"></path>
                        </g>
                    </g>
                </g>
            </g>
        </g>
    </g>
</svg>