<?xml version="1.0" encoding="UTF-8"?>
<svg width="178px" height="86px" viewBox="0 0 178 86" version="1.1" xmlns="http://www.w3.org/2000/svg" xmlns:xlink="http://www.w3.org/1999/xlink">
    <!-- Generator: sketchtool 64 (101010) - https://sketch.com -->
    <title>8FCEA278-C7B2-4D6B-9E60-CB688D61757E</title>
    <desc>Created with sketchtool.</desc>
    <defs>
        <path d="M10,0 L141.808768,0 L141.808768,0 L177,42.5 L141.808768,86 L10,86 C4.4771525,86 6.76353751e-16,81.5228475 0,76 L0,10 C-6.76353751e-16,4.4771525 4.4771525,1.01453063e-15 10,0 Z" id="path-1"></path>
        <text id="text-3" font-family="Montserrat-Black, Montserrat" font-size="32" font-weight="700" fill="#FFFFFF">
            <tspan x="29" y="54">START</tspan>
        </text>
        <filter x="-6.3%" y="-12.8%" width="112.6%" height="135.9%" filterUnits="objectBoundingBox" id="filter-4">
            <feOffset dx="0" dy="2" in="SourceAlpha" result="shadowOffsetOuter1"></feOffset>
            <feGaussianBlur stdDeviation="2" in="shadowOffsetOuter1" result="shadowBlurOuter1"></feGaussianBlur>
            <feColorMatrix values="0 0 0 0 0.285212862   0 0 0 0 0.285212862   0 0 0 0 0.285212862  0 0 0 0.5 0" type="matrix" in="shadowBlurOuter1"></feColorMatrix>
        </filter>
    </defs>
    <g id="Page-1" stroke="none" stroke-width="1" fill="none" fill-rule="evenodd">
        <g id="Game" transform="translate(-44.000000, -872.000000)">
            <g id="Table" transform="translate(44.000000, 138.000000)">
                <g id="Group-10" transform="translate(0.000000, 734.000000)">
                    <g id="noun_start-up_2984184" transform="translate(0.660714, 0.000000)">
                        <mask id="mask-2" fill="white">
                            <use xlink:href="#path-1"></use>
                        </mask>
                        <use id="Mask" fill="#38D87C" xlink:href="#path-1"></use>
                        <g mask="url(#mask-2)" fill="#000000" id="Shape" opacity="0.143298921">
                            <g transform="translate(91.339286, 49.000000) rotate(14.000000) translate(-91.339286, -49.000000) translate(33.339286, -9.000000)">
                                <path d="M21.8288237,94.1725287 C24.5348762,86.929807 29.9353957,68.010348 38.9621911,77.0389237 C47.9906416,86.0658443 29.071445,91.4664387 21.8288237,94.1725287 L21.8288237,94.1725287 Z M115.120605,0.879453576 C88.7353517,-4.98291398 61.176648,19.6334024 40.7529855,39.9861788 L76.0144222,75.2481045 C96.3652613,54.8241588 120.982891,27.2634178 115.120605,0.879453576 Z M38.6328306,42.1080182 L26.9099131,36.5998422 C25.1902871,35.792153 23.3713564,35.2575554 22.0290881,36.5998422 L0,58.6292358 L4.92551212,63.5548163 L21.7675858,46.7108539 L36.6301862,59.0314254 L32.1813366,63.4803367 L52.5205901,83.8198723 L56.9694397,79.3709609 L69.2881852,94.2321123 L52.4444565,111.07442 L57.3716237,116 L79.3990567,93.9706064 C80.741325,92.6299746 80.2067348,90.8093636 79.3990567,89.0913688 L73.8926122,77.3682888 L38.6328306,42.1080182 L38.6328306,42.1080182 Z M93.7303771,17.6356956 L98.3629404,22.2699782 C100.6966,24.6020155 100.6966,28.415368 98.3629404,30.7490604 L93.7303771,35.3816879 C91.3967171,37.7153803 87.5834174,37.7153803 85.2514125,35.3816879 L80.6171941,30.7490604 C78.2835341,28.415368 78.2835341,24.6020155 80.6171941,22.2699782 L85.2514125,17.6356956 C87.5834174,15.3020032 91.3967171,15.3020032 93.7303771,17.6356956 L93.7303771,17.6356956 Z M77.4427545,33.9218889 L82.0769729,38.5561716 C84.4089778,40.8898639 84.4089778,44.7032165 82.0769729,47.0352537 L77.4427545,51.6695364 C75.1107496,54.0015736 71.2957948,54.0015736 68.9637899,51.6695364 L64.3295716,47.0352537 C61.9975667,44.7032165 61.9975667,40.8898639 64.3295716,38.5561716 L68.9637899,33.9218889 C71.2957948,31.5898517 75.1107496,31.5898517 77.4427545,33.9218889 Z"></path>
                            </g>
                        </g>
                    </g>
                    <g id="START" fill="#FFFFFF" fill-opacity="1">
                        <use filter="url(#filter-4)" xlink:href="#text-3"></use>
                        <use xlink:href="#text-3"></use>
                    </g>
                </g>
            </g>
        </g>
    </g>
</svg>