<?xml version="1.0" encoding="UTF-8"?>
<svg width="152px" height="105px" viewBox="0 0 152 105" version="1.1" xmlns="http://www.w3.org/2000/svg" xmlns:xlink="http://www.w3.org/1999/xlink">
    <!-- Generator: sketchtool 64 (101010) - https://sketch.com -->
    <title>E68E3A8E-86C4-4C45-A0EF-45CE09B0D76E</title>
    <desc>Created with sketchtool.</desc>
    <g id="Page-1" stroke="none" stroke-width="1" fill="none" fill-rule="evenodd">
        <g id="Game" transform="translate(-720.000000, -196.000000)" fill="#252429" fill-rule="nonzero">
            <g id="Carts" transform="translate(652.000000, 111.000000)">
                <g id="talk">
                    <g id="Group-4" transform="translate(40.000000, 0.000000)">
                        <g id="noun_speaking_2199461" transform="translate(28.000000, 85.000000)">
                            <g id="Group">
                                <path d="M81.8583333,46.9318182 C81.8583333,45.5 81.7,44.0681818 81.5416667,42.4772727 C79.4833333,14 60.1666667,11.2954545 45.2833333,11.2954545 C30.4,11.2954545 11.0833333,14.1590909 9.025,42.4772727 C8.86666667,44.0681818 8.86666667,45.5 8.70833333,46.9318182 C6.80833333,47.25 5.225,48.2045455 4.43333333,49 C1.9,51.2272727 0.633333333,55.0454545 0.633333333,60.2954545 C0.633333333,67.2954545 3.325,71.2727273 8.86666667,72.5454545 C11.0833333,85.4318182 22.1666667,104.045455 45.125,104.045455 C68.0833333,104.045455 79.325,85.4318182 81.3833333,72.5454545 C86.925,71.2727273 89.6166667,67.2954545 89.6166667,60.2954545 C89.6166667,55.0454545 88.35,51.2272727 85.8166667,49 C85.3416667,48.2045455 83.9166667,47.25 81.8583333,46.9318182 Z M79.1666667,66.1818182 C77.1083333,66.3409091 75.525,67.9318182 75.3666667,70 C74.2583333,80.6590909 65.075,97.5227273 45.2833333,97.5227273 C25.4916667,97.5227273 16.3083333,80.6590909 15.2,70.1590909 C15.0416667,68.0909091 13.4583333,66.5 11.4,66.3409091 C8.86666667,66.0227273 7.125,65.8636364 7.125,60.4545455 C7.125,56.1590909 8.075,54.5681818 8.70833333,54.0909091 C8.86666667,53.9318182 9.34166667,53.4545455 10.6083333,53.4545455 C11.0833333,55.3636364 11.4,57.2727273 11.7166667,58.2272727 C12.35,60.4545455 14.8833333,60.1363636 15.3583333,58.2272727 C15.675,56.7954545 16.7833333,48.0454545 21.6916667,39.2954545 C24.3833333,41.5227273 27.8666667,43.4318182 31.9833333,43.9090909 C32.4583333,43.9090909 32.775,43.4318182 32.4583333,43.1136364 C31.6666667,41.5227273 31.1916667,39.6136364 30.7166667,37.3863636 C34.0416667,40.5681818 39.9,44.7045455 46.8666667,44.3863636 C47.3416667,44.3863636 47.5,43.9090909 47.1833333,43.4318182 C46.3916667,42.1590909 45.6,40.5681818 44.9666667,38.8181818 C48.925,41.2045455 55.2583333,43.9090909 61.9083333,42.1590909 C62.3833333,42 62.3833333,41.5227273 62.0666667,41.2045455 C60.9583333,40.0909091 59.6916667,38.5 58.7416667,36.75 C61.4333333,38.1818182 65.55,39.9318182 69.9833333,40.0909091 C74.4166667,48.5227273 75.525,56.6363636 75.8416667,58.0681818 C76.1583333,59.9772727 78.85,60.2954545 79.4833333,58.0681818 C79.8,56.9545455 79.9583333,55.0454545 80.275,53.1363636 C81.5416667,53.1363636 82.0166667,53.6136364 82.175,53.7727273 C82.8083333,54.25 83.7583333,55.8409091 83.7583333,60.1363636 C83.4416667,65.7045455 81.5416667,66.0227273 79.1666667,66.1818182 Z" id="Shape"></path>
                                <ellipse id="Oval" cx="33.25" cy="58.8636364" rx="5.85833333" ry="5.88636364"></ellipse>
                                <ellipse id="Oval" cx="57.475" cy="58.8636364" rx="5.85833333" ry="5.88636364"></ellipse>
                                <path d="M57.6333333,72.5454545 L33.0916667,72.5454545 C31.825,72.5454545 30.875,73.8181818 31.0333333,75.0909091 C32.4583333,81.6136364 38.3166667,86.5454545 45.2833333,86.5454545 C52.25,86.5454545 58.1083333,81.6136364 59.5333333,75.0909091 C59.85,73.8181818 58.9,72.5454545 57.6333333,72.5454545 Z" id="Path"></path>
                                <path d="M144.083333,0.954545455 L96.7416667,0.954545455 C92.7833333,0.954545455 89.6166667,4.13636364 89.6166667,8.11363636 L89.6166667,36.9090909 C89.6166667,40.8863636 92.7833333,44.0681818 96.7416667,44.0681818 L101.016667,44.0681818 C100.858333,46.6136364 100.541667,49.7954545 98.9583333,53.2954545 C98.325,54.8863636 98.6416667,56.7954545 99.9083333,57.9090909 C100.7,58.7045455 101.65,59.0227273 102.6,59.0227273 C103.233333,59.0227273 103.866667,58.8636364 104.5,58.5454545 C111.308333,55.0454545 117.166667,48.2045455 120.333333,44.0681818 L144.083333,44.0681818 C148.041667,44.0681818 151.208333,40.8863636 151.208333,36.9090909 L151.208333,8.11363636 C151.208333,4.13636364 148.041667,0.954545455 144.083333,0.954545455 Z M105.291667,27.2045455 C102.758333,27.2045455 100.7,25.1363636 100.7,22.5909091 C100.7,20.0454545 102.758333,17.9772727 105.291667,17.9772727 C107.825,17.9772727 109.883333,20.0454545 109.883333,22.5909091 C109.883333,25.1363636 107.825,27.2045455 105.291667,27.2045455 Z M120.333333,27.2045455 C117.8,27.2045455 115.741667,25.1363636 115.741667,22.5909091 C115.741667,20.0454545 117.8,17.9772727 120.333333,17.9772727 C122.866667,17.9772727 124.925,20.0454545 124.925,22.5909091 C124.925,25.1363636 122.866667,27.2045455 120.333333,27.2045455 Z M135.375,27.2045455 C132.841667,27.2045455 130.783333,25.1363636 130.783333,22.5909091 C130.783333,20.0454545 132.841667,17.9772727 135.375,17.9772727 C137.908333,17.9772727 139.966667,20.0454545 139.966667,22.5909091 C139.966667,25.1363636 137.908333,27.2045455 135.375,27.2045455 Z" id="Shape"></path>
                            </g>
                        </g>
                    </g>
                </g>
            </g>
        </g>
    </g>
</svg>