<?xml version="1.0" encoding="UTF-8"?>
<svg width="162px" height="148px" viewBox="0 0 162 148" version="1.1" xmlns="http://www.w3.org/2000/svg" xmlns:xlink="http://www.w3.org/1999/xlink">
    <!-- Generator: sketchtool 64 (101010) - https://sketch.com -->
    <title>CBB55A28-D31B-46FE-B7E0-25AC688312C1</title>
    <desc>Created with sketchtool.</desc>
    <g id="Page-1" stroke="none" stroke-width="1" fill="none" fill-rule="evenodd" opacity="0.2">
        <g id="Game" transform="translate(-1720.000000, -115.000000)" fill="#000000" fill-rule="nonzero">
            <g id="Teams" transform="translate(1512.000000, 112.000000)">
                <g id="kis">
                    <g id="Group">
                        <g transform="translate(300.114701, 95.246014) rotate(-19.000000) translate(-300.114701, -95.246014) translate(221.614701, 16.746014)">
                            <path d="M124.45059,0.230045903 L32.4926953,0.230045903 C14.7579584,0.230045903 0.471642655,14.5163617 0.471642655,32.2510985 L0.471642655,124.208993 C0.471642655,141.77952 14.7579584,156.230046 32.4926953,156.230046 L124.45059,156.230046 C142.021116,156.230046 156.471643,141.94373 156.471643,124.208993 L156.471643,32.2510985 C156.471643,14.5163617 142.185327,0.230045903 124.45059,0.230045903 Z M144.320064,124.208993 C144.320064,135.211099 135.452695,144.078467 124.45059,144.078467 L32.4926953,144.078467 C21.49059,144.078467 12.6232216,135.211099 12.6232216,124.208993 L12.6232216,32.2510985 C12.6232216,21.2489933 21.49059,12.3816249 32.4926953,12.3816249 L124.45059,12.3816249 C135.452695,12.3816249 144.320064,21.2489933 144.320064,32.2510985 L144.320064,124.208993 Z" id="Shape" stroke="#000000" stroke-width="3"></path>
                            <circle id="Oval" cx="53.0673847" cy="56.7912102" r="11"></circle>
                            <path d="M112.556538,61.6840689 L105.817851,57.2998214 L112.556538,52.9155739 C114.642322,51.4541581 115.284102,48.5313264 114.000543,46.4203924 C112.556538,44.3094584 109.66853,43.6599403 107.582745,44.9589766 L94.7471509,53.4027125 C93.4635914,54.2146102 92.6613668,55.676026 92.6613668,57.2998214 C92.6613668,58.9236168 93.4635914,60.3850326 94.7471509,61.1969303 L107.4223,69.4782867 C108.224525,69.9654253 109.02675,70.2901844 109.989419,70.2901844 C111.433424,70.2901844 113.037873,69.4782867 113.840098,68.1792504 C115.284102,65.9059369 114.642322,63.1454848 112.556538,61.6840689 Z" id="Path"></path>
                            <path d="M107.172743,92.1762757 C104.243573,90.7339292 100.663477,92.016015 99.1988923,94.9007079 C95.2933328,102.913744 87.1567506,107.881826 78.0437785,107.881826 C68.9308065,107.881826 60.7942243,102.913744 56.8886648,94.9007079 C55.42408,92.016015 51.8439838,90.7339292 48.9148142,92.1762757 C45.9856446,93.6186221 44.6837915,97.1443579 46.1483763,100.029051 C52.0067155,111.888344 64.5370521,119.580858 78.0437785,119.580858 C91.550505,119.580858 104.080842,111.888344 109.939181,100.029051 C111.403766,97.1443579 110.101912,93.6186221 107.172743,92.1762757 Z" id="Path"></path>
                        </g>
                    </g>
                </g>
            </g>
        </g>
    </g>
</svg>