<?xml version="1.0" encoding="UTF-8"?>
<svg width="133px" height="144px" viewBox="0 0 133 144" version="1.1" xmlns="http://www.w3.org/2000/svg" xmlns:xlink="http://www.w3.org/1999/xlink">
    <!-- Generator: sketchtool 64 (101010) - https://sketch.com -->
    <title>CB24ED67-05EB-4E61-A182-4F027792F028</title>
    <desc>Created with sketchtool.</desc>
    <g id="Page-1" stroke="none" stroke-width="1" fill="none" fill-rule="evenodd" opacity="0.2">
        <g id="Game" transform="translate(-1747.000000, -452.000000)" fill="#000000" fill-rule="nonzero">
            <g id="Teams" transform="translate(1512.000000, 112.000000)">
                <g id="kozli" transform="translate(0.000000, 334.000000)">
                    <g id="Group">
                        <g transform="translate(307.000000, 88.500000) rotate(-23.000000) translate(-307.000000, -88.500000) translate(246.000000, 16.000000)">
                            <path d="M88.0947964,89.9325056 C85.2306308,87.6855973 81.6127374,86.63704 77.9948441,87.0864217 C76.0351518,87.3860095 74.6784418,89.0337423 74.9799329,90.9810629 C75.281424,92.9283835 76.9396252,94.2765285 78.8993174,93.9769407 C79.2008085,93.9769407 79.3515541,93.9769407 79.6530452,93.9769407 C75.8844063,100.567872 69.1008562,104.612307 61.2620872,104.612307 C53.4233182,104.612307 46.6397681,100.567872 42.8711291,93.9769407 C43.1726202,93.9769407 43.3233658,93.9769407 43.6248569,93.9769407 C45.5845491,94.2765285 47.2427503,92.9283835 47.5442414,90.9810629 C47.8457325,89.0337423 46.4890225,87.3860095 44.5293302,87.0864217 C40.9114369,86.63704 37.2935435,87.6855973 34.4293779,89.9325056 C31.5652123,92.179414 29.7562656,95.3250857 29.3040289,98.9201391 C29.0025378,100.86746 30.3592478,102.515193 32.3189401,102.81478 C32.4696856,102.81478 32.6204312,102.81478 32.7711767,102.81478 C34.4293779,102.81478 35.9368335,101.466635 36.2383246,99.8189025 C36.2383246,99.5193147 36.3890701,99.2197269 36.3890701,98.9201391 C41.6651646,107.458391 51.0113892,112.850971 61.2620872,112.850971 C61.4128327,112.850971 61.4128327,112.850971 61.5635783,112.850971 L63.6740161,117.943963 C64.8799805,120.790047 66.9904183,122.887162 69.8545839,124.085513 C71.211294,124.684688 72.7187495,124.984276 74.2262051,124.984276 C75.7336607,124.984276 77.2411163,124.684688 78.5978263,124.085513 C81.4619919,122.887162 83.5724297,120.790047 84.7783942,117.943963 C85.9843586,115.097879 85.9843586,112.102002 84.7783942,109.255918 L82.3664652,103.713544 C83.8739208,102.215605 85.0798853,100.567872 86.1351042,98.7703452 C86.2858497,99.069933 86.2858497,99.3695208 86.2858497,99.6691086 C86.4365953,101.466635 87.9440509,102.664986 89.7529976,102.664986 C89.9037431,102.664986 90.0544887,102.664986 90.2052342,102.664986 C92.1649265,102.365399 93.5216365,100.717666 93.2201454,98.7703452 C92.9186543,95.3250857 90.958962,92.179414 88.0947964,89.9325056 Z M77.3918618,112.102002 C77.6933529,113.000765 77.6933529,113.899528 77.3918618,114.798292 C77.0903707,115.697055 76.3366429,116.296231 75.5829151,116.745612 C74.6784418,117.0452 73.7739684,117.0452 72.8694951,116.745612 C71.9650218,116.446024 71.3620395,115.697055 70.9098028,114.948086 L69.5530928,111.65262 C71.8142762,111.053444 73.924714,110.004887 76.0351518,108.806536 L77.3918618,112.102002 Z" id="Shape"></path>
                            <circle id="Oval" cx="40.9185921" cy="70.7331457" r="10.5"></circle>
                            <circle id="Oval" cx="80.8382386" cy="71.3826246" r="10.5"></circle>
                            <path d="M121.433624,67.9623338 C120.981676,56.9018293 119.173884,45.689811 117.667392,38.4171505 C120.529728,30.3869211 121.132325,16.5991689 102.150516,1.44779281 C99.8907763,-0.370372323 96.576492,-0.218858562 94.4674021,1.75082033 C80.9089666,14.4779762 54.9972899,11.2961873 33.4544425,10.2355909 C4.68042942,8.72045333 2.42069017,24.0233432 4.68042942,35.8414165 C3.17393659,42.9625633 0.914197341,55.3866917 0.462249492,67.9623338 C0.311600209,70.386554 1.36614519,72.6592604 2.87263802,74.3259118 L2.87263802,92.6590769 C2.87263802,120.99215 25.771329,144.173756 54.0933942,144.173756 L67.802479,144.173756 C95.9738949,144.173756 119.023235,121.143664 119.023235,92.6590769 L119.023235,74.3259118 C120.529728,72.6592604 121.584273,70.5380678 121.433624,67.9623338 Z M67.802479,133.113251 L54.0933942,133.113251 C31.9479496,133.113251 13.8700357,114.9316 13.8700357,92.6590769 L13.8700357,75.3865081 C15.9791256,73.8713705 17.4856185,71.4471503 17.4856185,68.5683889 C17.6362678,59.4775632 18.6908127,52.3564165 20.3479548,46.7504073 C28.0310683,50.2352238 42.9453473,52.659444 60.2700148,52.659444 C78.4985781,52.659444 94.1661035,49.9321963 101.397269,46.1443523 C103.054411,51.9018752 104.259605,59.1745357 104.410255,68.5683889 C104.410255,71.4471503 105.916748,73.8713705 108.025838,75.3865081 L108.025838,92.8105906 C108.025838,114.9316 89.9479236,133.113251 67.802479,133.113251 Z" id="Shape"></path>
                        </g>
                    </g>
                </g>
            </g>
        </g>
    </g>
</svg>