<?xml version="1.0" encoding="UTF-8"?>
<svg width="141px" height="145px" viewBox="0 0 141 145" version="1.1" xmlns="http://www.w3.org/2000/svg" xmlns:xlink="http://www.w3.org/1999/xlink">
    <!-- Generator: sketchtool 64 (101010) - https://sketch.com -->
    <title>378DFEB8-73DE-4C57-BF40-23553D3903AB</title>
    <desc>Created with sketchtool.</desc>
    <g id="Page-1" stroke="none" stroke-width="1" fill="none" fill-rule="evenodd" opacity="0.2">
        <g id="Game" transform="translate(-1739.000000, -617.000000)" fill="#000000" fill-rule="nonzero">
            <g id="Teams" transform="translate(1512.000000, 112.000000)">
                <g id="rudik" transform="translate(0.000000, 500.000000)">
                    <g id="Group">
                        <g transform="translate(299.500000, 75.500000) rotate(-30.000000) translate(-299.500000, -75.500000) translate(227.000000, 3.000000)" id="Shape">
                            <path d="M72.4016393,41.0833333 C60.405743,41.0833333 50.6811475,50.82114 50.6811475,62.8333333 C50.6811475,74.8455266 60.405743,84.5833333 72.4016393,84.5833333 C84.3975357,84.5833333 94.1221311,74.8455266 94.1221311,62.8333333 C94.1075037,50.8272124 84.3914716,41.0979806 72.4016393,41.0833333 Z M72.4016393,79.75 C63.0714977,79.75 55.5079235,72.1761504 55.5079235,62.8333333 C55.5079235,53.4905163 63.0714977,45.9166667 72.4016393,45.9166667 C81.731781,45.9166667 89.2953552,53.4905163 89.2953552,62.8333333 C89.2847154,72.1717337 81.7273703,79.7393458 72.4016393,79.75 Z"></path>
                            <path d="M142.389891,53.1666667 L127.002129,53.1666667 C126.063644,47.7615379 124.323678,42.5272177 121.839892,37.6371667 C124.175414,35.3720192 125.494561,32.2558227 125.496175,29 L125.496175,24.1666667 C125.496175,22.8319785 124.415664,21.75 123.082787,21.75 L109.756058,21.75 C103.195764,15.7469945 95.2810801,11.4244064 86.6888962,9.15191667 C86.8046514,8.52423602 86.8692214,7.88816596 86.8819672,7.25 L86.8819672,2.41666667 C86.8819672,1.08197852 85.8014566,0 84.4685792,0 L60.3346995,0 C59.0018221,0 57.9213115,1.08197852 57.9213115,2.41666667 L57.9213115,7.25 C57.9340573,7.88816596 57.9986273,8.52423602 58.1143825,9.15191667 C49.5221986,11.4244064 41.6075151,15.7469945 35.0472202,21.75 L21.7204918,21.75 C20.3876144,21.75 19.3071038,22.8319785 19.3071038,24.1666667 L19.3071038,29 C19.3087179,32.2558227 20.6278652,35.3720192 22.9633866,37.6371667 C20.4796006,42.5272177 18.7396347,47.7615379 17.8011497,53.1666667 L2.41338798,53.1666667 C1.0805106,53.1666667 0,54.2486452 0,55.5833333 L0,60.4166667 C0.00797894142,67.0867951 5.4058608,72.4920102 12.0669399,72.5 L16.8937158,72.5 C17.2002161,72.5 17.4874093,72.4323333 17.7866694,72.4105833 C18.6531251,77.4672197 20.2208939,82.3778302 22.4445082,87 L21.7204918,87 C20.3876144,87 19.3071038,88.0819785 19.3071038,89.4166667 L19.3071038,94.25 C19.3150828,100.920128 24.7129646,106.325344 31.3740437,106.333333 L36.2008197,106.333333 C36.6973833,106.314187 37.1922779,106.264146 37.6826399,106.1835 C40.3038932,108.296686 43.1127156,110.165307 46.0739899,111.766 L37.0961866,130.5 L14.4803279,130.5 C13.1474505,130.5 12.0669399,131.581979 12.0669399,132.916667 L12.0669399,142.583333 C12.0669399,143.918021 13.1474505,145 14.4803279,145 L130.322951,145 C131.655828,145 132.736339,143.918021 132.736339,142.583333 L132.736339,132.916667 C132.736339,131.581979 131.655828,130.5 130.322951,130.5 L107.707092,130.5 L98.7292888,111.766 C101.690737,110.165597 104.499585,108.296959 107.120639,106.1835 C107.611001,106.264146 108.105895,106.314187 108.602459,106.333333 L113.429235,106.333333 C120.090314,106.325344 125.488196,100.920128 125.496175,94.25 L125.496175,89.4166667 C125.496175,88.0819785 124.415664,87 123.082787,87 L122.35877,87 C124.585716,82.3783319 126.15674,77.467703 127.026263,72.4105833 C127.325523,72.4323333 127.612716,72.5 127.919216,72.5 L132.745992,72.5 C139.407071,72.4920102 144.804953,67.0867951 144.812932,60.4166667 L144.812932,55.5833333 C144.812932,54.9407151 144.557346,54.324557 144.102658,53.8710652 C143.64797,53.4175733 143.031632,53.1640962 142.389891,53.1666667 Z M122.100538,53.1666667 L118.256011,53.1666667 C117.913136,53.1697371 117.574902,53.2463757 117.264108,53.3914167 C116.358875,49.091648 114.836301,44.9458917 112.743833,41.0833333 L113.429235,41.0833333 C114.909354,41.075539 116.3751,40.7919896 117.751613,40.2471667 C119.781687,44.3354013 121.244841,48.6820416 122.100538,53.1666667 L122.100538,53.1666667 Z M65.1614754,22.3904167 L65.1614754,32.29875 C60.8727884,33.3201518 56.8489594,35.2400799 53.3551814,37.932 L47.7488811,32.3180833 C47.9935581,31.468004 48.1440938,30.5935489 48.1977713,29.7105 C53.2169877,26.0002062 59.0211717,23.4956169 65.1614754,22.3904167 Z M96.6055074,29.7056667 C96.6591849,30.5887156 96.8097206,31.4631706 97.0543975,32.31325 L91.4480973,37.9271667 C87.9543193,35.2352465 83.9304903,33.3153185 79.6418033,32.2939167 L79.6418033,22.3855833 C85.7822071,23.4904504 91.5864641,25.9950711 96.6055074,29.7056667 L96.6055074,29.7056667 Z M100.908578,49.7881667 L108.078754,42.60825 C110.375333,46.6329246 111.967785,51.0211811 112.787274,55.5833333 L102.892383,55.5833333 C102.422935,53.5894542 101.758457,51.646738 100.908578,49.7833333 L100.908578,49.7881667 Z M72.4016393,89.4166667 C57.7399882,89.4166667 45.8543716,77.5149029 45.8543716,62.8333333 C45.8543716,48.1517637 57.7399882,36.25 72.4016393,36.25 C87.0632905,36.25 98.9489071,48.1517637 98.9489071,62.8333333 C98.9316188,77.5077262 87.0561235,89.3993549 72.4016393,89.4166667 L72.4016393,89.4166667 Z M82.0551913,108.75 L82.0551913,111.166667 C82.0551913,115.170731 78.8136594,118.416667 74.8150273,118.416667 L69.9882514,118.416667 C65.9896192,118.416667 62.7480874,115.170731 62.7480874,111.166667 L62.7480874,108.75 L82.0551913,108.75 Z M65.1614754,103.26175 L69.544188,94.105 C70.4878227,94.1895833 71.4362842,94.25 72.4016393,94.25 C73.3669945,94.25 74.315456,94.1895833 75.2590907,94.105 L79.6418033,103.264167 C74.8521343,104.112551 69.9508617,104.111733 65.1614754,103.26175 L65.1614754,103.26175 Z M69.9882514,21.8200833 C71.5957287,21.7234186 73.20755,21.7234186 74.8150273,21.8200833 L74.8150273,31.5350833 C74.0161959,31.47225 73.2173645,31.4118333 72.4016393,31.4118333 C71.5859142,31.4118333 70.7870828,31.47225 69.9882514,31.5350833 L69.9882514,21.8200833 Z M98.4662295,45.385 C97.4493237,43.8762501 96.3034862,42.4587857 95.041632,41.1485833 L99.4315847,36.76475 C100.609708,38.1826094 102.095472,39.3124974 103.775683,40.0683333 L98.4662295,45.385 Z M45.371694,36.76475 L49.7544066,41.1534167 C48.4950604,42.4639165 47.3516526,43.881372 46.3370492,45.3898333 L41.0275956,40.0731667 C42.7082916,39.3159384 44.1940969,38.1843656 45.371694,36.76475 L45.371694,36.76475 Z M43.8947005,49.7833333 C43.0423419,51.6464711 42.3754368,53.5891944 41.9036555,55.5833333 L32.0087648,55.5833333 C32.826628,51.0210957 34.4183133,46.6327018 36.7148713,42.60825 L43.8947005,49.7833333 Z M31.3740437,62.8333333 C31.3740437,62.03825 31.4030044,61.2359167 31.4512721,60.4166667 L41.1506784,60.4166667 C41.0879303,61.2165833 41.0275956,62.0165 41.0275956,62.8333333 C41.0275956,63.6501667 41.0879303,64.4500833 41.1506784,65.25 L31.4512721,65.25 C31.4030044,64.43075 31.3740437,63.626 31.3740437,62.8333333 Z M41.9036555,70.0833333 C42.3754368,72.0774722 43.0423419,74.0201956 43.8947005,75.8833333 L36.7245249,83.06325 C34.4274315,79.037087 32.8349645,74.6471536 32.0160049,70.0833333 L41.9036555,70.0833333 Z M39.6133503,87 L46.3370492,80.2768333 C47.353955,81.7855833 48.4997925,83.2030477 49.7616467,84.51325 L46.9645301,87.3045 C46.6253966,87.1124404 46.2439068,87.0078034 45.8543716,87 L39.6133503,87 Z M48.2677596,94.25 L48.2677596,92.8338333 L53.3551814,87.7395 C54.3761713,88.529772 55.4449227,89.2561544 56.5553339,89.9145 L52.3705191,98.6193333 C50.8871816,97.7973719 49.4594007,96.8786694 48.096409,95.8691667 C48.1902801,95.3339814 48.2475302,94.7929997 48.2677596,94.25 L48.2677596,94.25 Z M60.8897787,92.0315 C62.104235,92.5106111 63.3470823,92.914157 64.611223,93.2398333 L60.3829672,102.05825 C59.1505304,101.686083 57.9277472,101.243833 56.7146175,100.7315 L60.8897787,92.0315 Z M58.7177295,116.7105 C58.932521,116.763667 59.1859268,116.81925 59.4151986,116.872417 C61.4981804,120.785387 65.5601112,123.235512 69.9882514,123.25 L74.8150273,123.25 C79.2423005,123.234624 83.3030943,120.784625 85.3856667,116.872417 C85.6149385,116.81925 85.8683443,116.763667 86.0831358,116.7105 L92.6982322,130.5 L52.1050464,130.5 L58.7177295,116.7105 Z M84.4154847,102.05825 L80.1896423,93.2301667 C81.453783,92.9044904 82.6966303,92.5009444 83.9110866,92.0218333 L88.0790077,100.721833 C86.8787494,101.240611 85.6583795,101.686083 84.4178981,102.05825 L84.4154847,102.05825 Z M92.4327596,98.6193333 L88.2479448,89.9 C89.3583559,89.2416544 90.4271074,88.515272 91.4480973,87.725 L96.5355191,92.8338333 L96.5355191,94.25 C96.553482,94.7928249 96.6083121,95.3337968 96.6996295,95.8691667 C95.3384674,96.8776683 93.9131613,97.7963345 92.4327596,98.6193333 Z M98.9489071,87 C98.5593719,87.0078034 98.1778821,87.1124404 97.8387486,87.3045 L95.0512855,84.51325 C96.3097957,83.2026511 97.4523936,81.7851986 98.4662295,80.2768333 L105.189928,87 L98.9489071,87 Z M100.908578,75.8833333 C101.760937,74.0201956 102.427842,72.0774722 102.899623,70.0833333 L112.794514,70.0833333 C111.975311,74.6448004 110.382834,79.03231 108.085994,83.056 L100.908578,75.8833333 Z M103.6526,65.25 C103.715348,64.4500833 103.775683,63.6501667 103.775683,62.8333333 C103.775683,62.0165 103.715348,61.2165833 103.6526,60.4166667 L113.352007,60.4166667 C113.400274,61.2359167 113.429235,62.0406667 113.429235,62.8333333 C113.429235,63.626 113.400274,64.43075 113.352007,65.25 L103.6526,65.25 Z M120.669399,29 C120.669399,33.0040644 117.427867,36.25 113.429235,36.25 L108.602459,36.25 C104.603827,36.25 101.362295,33.0040644 101.362295,29 L101.362295,26.5833333 L120.669399,26.5833333 L120.669399,29 Z M102.1563,21.75 L98.9489071,21.75 C97.7431407,21.759189 96.7335899,22.6674637 96.5958538,23.867 C91.7588447,20.8320573 86.3946497,18.7357691 80.7833358,17.6875833 C82.4834735,16.7185323 83.9235836,15.3510983 84.9802175,13.7025 C91.1641667,15.2679126 96.9935218,17.9991371 102.1563,21.75 L102.1563,21.75 Z M62.7480874,4.83333333 L82.0551913,4.83333333 L82.0551913,7.25 C82.0551913,11.2540644 78.8136594,14.5 74.8150273,14.5 L69.9882514,14.5 C65.9896192,14.5 62.7480874,11.2540644 62.7480874,7.25 L62.7480874,4.83333333 Z M59.8230612,13.7025 C60.8787231,15.3519034 62.3190539,16.719547 64.0199429,17.6875833 C58.4084385,18.7351013 53.0441224,20.8314369 48.2074249,23.867 C48.0696887,22.6674637 47.060138,21.759189 45.8543716,21.75 L42.646979,21.75 C47.8097569,17.9991371 53.639112,15.2679126 59.8230612,13.7025 Z M24.1338798,26.5833333 L43.4409836,26.5833333 L43.4409836,29 C43.4409836,33.0040644 40.1994518,36.25 36.2008197,36.25 L31.3740437,36.25 C27.3754116,36.25 24.1338798,33.0040644 24.1338798,29 L24.1338798,26.5833333 Z M27.0516658,40.2471667 C28.4281785,40.7919896 29.8939242,41.075539 31.3740437,41.0833333 L32.0594459,41.0833333 C29.9662009,44.94554 28.4435848,49.0914122 27.5391702,53.3914167 C27.2283763,53.2463757 26.8901428,53.1697371 26.5472678,53.1666667 L22.7027407,53.1666667 C23.5584376,48.6820416 25.0215913,44.3354013 27.0516658,40.2471667 L27.0516658,40.2471667 Z M12.0669399,67.6666667 C8.06830776,67.6666667 4.82677596,64.4207311 4.82677596,60.4166667 L4.82677596,58 L24.1338798,58 L24.1338798,60.4166667 C24.1338798,64.4207311 20.892348,67.6666667 16.8937158,67.6666667 L12.0669399,67.6666667 Z M22.4445082,71.0814167 C23.0079185,70.7914916 23.5477586,70.4577743 24.0590648,70.0833333 L27.1288943,70.0833333 C28.0587418,75.9279694 30.1223931,81.5337516 33.2033918,86.5843333 L32.7882891,87 L27.8722178,87 C25.1836828,82.0364149 23.3488059,76.6550216 22.4445082,71.0814167 L22.4445082,71.0814167 Z M31.3740437,101.5 C27.3754116,101.5 24.1338798,98.2540644 24.1338798,94.25 L24.1338798,91.8333333 L43.4409836,91.8333333 L43.4409836,94.25 C43.4409836,98.2540644 40.1994518,101.5 36.2008197,101.5 L31.3740437,101.5 Z M46.3973839,100.642083 C48.2963474,101.967144 50.3014621,103.132725 52.3922396,104.126917 C54.1830991,104.991321 56.0303469,105.733323 57.9213115,106.347833 L57.9213115,111.166667 C57.9213115,111.275417 57.9502721,111.3745 57.9526855,111.48325 C52.6033555,109.916449 47.5590642,107.450125 43.0355344,104.18975 C44.3853051,103.248296 45.5292177,102.041157 46.3973839,100.642083 L46.3973839,100.642083 Z M50.4398087,113.84675 C51.6465027,114.366333 52.8531967,114.837583 54.0598907,115.262917 L46.7497385,130.5 L42.4490811,130.5 L50.4398087,113.84675 Z M127.909563,140.166667 L16.8937158,140.166667 L16.8937158,135.333333 L127.909563,135.333333 L127.909563,140.166667 Z M98.0535402,130.5 L90.743388,115.275 C91.9621489,114.849667 93.156776,114.376 94.3634699,113.858833 L102.354198,130.5 L98.0535402,130.5 Z M94.4986197,108.530083 C92.0331427,109.719112 89.4754143,110.705931 86.8505932,111.480833 C86.8505932,111.3745 86.8819672,111.275417 86.8819672,111.166667 L86.8819672,106.347833 C88.7599953,105.737703 90.5950662,105.002193 92.3748383,104.14625 C94.4786249,103.145982 96.4965979,101.973967 98.4083082,100.642083 C99.2764743,102.041157 100.420387,103.248296 101.770158,104.18975 C99.4720506,105.838007 97.0396403,107.289896 94.4986197,108.530083 L94.4986197,108.530083 Z M120.669399,94.25 C120.669399,98.2540644 117.427867,101.5 113.429235,101.5 L108.602459,101.5 C104.603827,101.5 101.362295,98.2540644 101.362295,94.25 L101.362295,91.8333333 L120.669399,91.8333333 L120.669399,94.25 Z M116.931061,87 L112.01499,87 L111.597473,86.5819167 C114.6779,81.5317033 116.742281,75.9269883 117.674384,70.0833333 L120.744214,70.0833333 C121.254747,70.4576665 121.793776,70.7913815 122.356357,71.0814167 C121.452815,76.6548752 119.618756,82.0362614 116.931061,87 L116.931061,87 Z M139.976503,60.4166667 C139.976503,64.4207311 136.734971,67.6666667 132.736339,67.6666667 L127.909563,67.6666667 C123.910931,67.6666667 120.669399,64.4207311 120.669399,60.4166667 L120.669399,58 L139.976503,58 L139.976503,60.4166667 Z"></path>
                        </g>
                    </g>
                </g>
            </g>
        </g>
    </g>
</svg>