<?xml version="1.0" encoding="UTF-8"?>
<svg width="141px" height="149px" viewBox="0 0 141 149" version="1.1" xmlns="http://www.w3.org/2000/svg" xmlns:xlink="http://www.w3.org/1999/xlink">
    <!-- Generator: sketchtool 64 (101010) - https://sketch.com -->
    <title>15C992E8-5B56-4114-8DFA-5C94EB93201F</title>
    <desc>Created with sketchtool.</desc>
    <g id="Page-1" stroke="none" stroke-width="1" fill="none" fill-rule="evenodd" opacity="0.2">
        <g id="Game" transform="translate(-1739.000000, -281.000000)" fill="#000000" fill-rule="nonzero">
            <g id="Teams" transform="translate(1512.000000, 112.000000)">
                <g id="vkl" transform="translate(0.000000, 167.000000)">
                    <g id="Group">
                        <g transform="translate(302.500000, 92.000000) rotate(-19.000000) translate(-302.500000, -92.000000) translate(239.000000, 2.000000)">
                            <path d="M107.872021,129.377797 C105.788409,128.125238 103.489184,127.52963 101.225241,127.52963 C96.8208433,127.52963 92.5340527,129.77553 90.1074196,133.841894 C88.6686888,136.012601 77.7645205,142.307057 57.16166,142.307057 C51.9594916,142.307057 47.3767224,141.903388 43.4015915,141.268204 C43.2232202,138.947111 42.42741,136.742766 41.1337283,134.866895 C39.4303808,132.403331 36.8802598,130.509652 33.7597428,129.6944 C32.6659938,129.407479 31.5702846,129.274902 30.4843761,129.274902 C30.4628147,129.274902 30.4432135,129.27688 30.4157718,129.27688 C27.6088746,129.292711 24.9235051,130.232625 22.736007,131.875001 C20.2388094,129.086919 16.7203873,127.549417 13.1098394,127.549417 C10.8458965,127.549417 8.54863149,128.148984 6.46305985,129.403521 C2.2370331,131.942279 -0.0210294348,136.517186 0.176943061,141.133648 C0.271029,143.217289 0.866906613,145.31676 2.01161887,147.232206 C2.12334592,147.416231 2.26251471,147.580469 2.378162,147.762515 L2.37424176,147.776367 C2.46636757,147.918838 2.57417438,148.049436 2.67218056,148.18795 C5.07725237,151.838774 8.36437986,154.917734 12.2924678,157.472322 C12.2748267,157.60292 12.2532653,157.733519 12.2532653,157.868075 L12.2532653,175.8887 L12.2532653,176.929531 C12.2532653,178.368094 13.4136586,179.52963 14.8425888,179.52963 C15.4208253,179.52963 15.9539789,179.331753 16.383246,179.009214 C17.016366,178.532332 17.4338723,177.782379 17.4338723,176.929531 C17.4338723,178.368094 18.5962257,179.52963 20.027116,179.52963 C21.4560462,179.52963 22.6183996,178.368094 22.6183996,176.929531 C22.6183996,178.368094 23.7748726,179.52963 25.207723,179.52963 C26.6366532,179.52963 27.7950864,178.368094 27.7950864,176.929531 C27.7950864,178.368094 28.9554796,179.52963 30.3902902,179.52963 C31.8192204,179.52963 32.9815737,178.368094 32.9815737,176.929531 L32.9815737,173.379624 C35.1200687,171.737248 36.7508917,169.400325 37.5427816,166.616201 C44.122917,167.777737 50.8637825,168.306067 57.1596999,168.306067 C77.2921307,168.306067 101.885803,162.981207 111.641339,148.209716 C111.862833,147.871347 112.117649,147.560681 112.323462,147.214397 C113.466214,145.293015 114.064052,143.201459 114.152257,141.111882 C114.35611,136.493441 112.096088,131.914576 107.872021,129.377797 Z M14.7093004,152.836072 C14.1859473,152.483852 13.6704348,152.125695 13.1764836,151.753687 C13.9350515,150.265655 14.8739508,148.898327 15.9304574,147.633896 L14.7093004,152.836072 Z M34.1341265,159.221551 L19.6409717,154.502193 L22.1205282,143.961305 L36.8469377,148.751898 L34.1341265,159.221551 Z M59.7255018,163.060358 C58.9120505,157.749349 59.1237439,152.135589 59.6274956,147.459764 C67.4346684,147.265845 74.144172,146.191375 79.5541134,144.679597 C80.9536418,149.212951 82.6589494,154.899925 83.9153887,159.645007 C76.0239306,161.823629 67.4640703,162.872375 59.7255018,163.060358 Z M107.885742,144.541084 C107.2193,145.659087 106.405848,146.699918 105.531633,147.705131 C102.650251,144.004838 98.8084088,139.135094 95.5506832,135.207243 C97.0011747,133.638081 99.0220623,132.727849 101.227201,132.727849 C102.62281,132.727849 104.000777,133.11173 105.208213,133.841894 C106.991925,134.908449 108.246405,136.610188 108.754077,138.630509 C109.257828,140.650829 108.948129,142.752279 107.885742,144.541084 Z" id="Shape"></path>
                            <path d="M5.60575715,62.988731 C8.03444534,64.4990512 11.2169322,65.5477188 14.8068246,66.268056 C28.6054736,69.0359814 48.4699387,66.7953746 55.366311,65.8621201 C62.465402,64.9010073 83.1348374,61.6475508 95.4613156,54.969508 C98.2423013,53.4631676 100.606041,51.7817176 102.284867,49.9171985 C106.08535,45.6867101 105.530334,39.350927 101.044937,35.7651602 C96.6067747,32.2191912 89.980038,32.692783 86.1579047,36.8018886 C85.7800213,37.1123101 85.1069165,37.5142662 84.1622079,37.9818884 L81.7256472,2.93012322 C81.0249883,-0.414867825 64.2642845,-0.116385578 44.297476,3.60270322 C24.3267312,7.32179201 8.70164574,13.0506613 9.40230456,16.3996321 C9.44166742,16.568772 9.52236127,16.7259727 9.6384817,16.871234 C9.80380569,17.2055341 10.0183333,17.7487718 10.2564785,18.4133923 C10.8292081,18.5208459 11.4196509,18.6302894 12.0199345,18.7457025 C13.3956663,19.0342354 16.2199511,19.6351796 19.7783533,19.9754494 C23.3367554,20.3376079 27.6154978,20.3973043 31.7485976,20.1047917 C40.0147973,19.5814528 47.564593,17.6094801 47.8755596,18.502937 C48.2081757,19.342667 41.0953077,22.99211 32.4098936,24.8208112 C28.0957247,25.7560556 23.4371307,26.2137284 19.4732912,26.1739307 C16.6785284,26.1600015 14.2577128,25.9152461 12.5040976,25.6625311 C14.4387819,32.356493 16.7513497,41.1259014 18.0955912,46.4309259 C17.7157397,46.3334217 17.3850917,46.2279579 17.154819,46.1284639 C12.2679204,43.1953783 5.75927229,44.4967609 2.56104027,49.0834381 C-0.668682021,53.7119028 0.691304637,59.9342627 5.60575715,62.988731 Z" id="Path"></path>
                            <path d="M111.22249,91.1786747 C111.491384,85.6980173 110.629342,80.0466411 108.440626,74.4148878 C106.419968,69.195214 103.296055,64.0677675 99.3852328,59.3288531 C86.6127784,66.5265086 65.8960948,69.9742405 56.2989596,71.2458001 C51.3105847,71.9051273 41.4089669,73.0157797 31.0921454,73.0157797 C24.0692727,73.0157797 18.19513,72.4977369 13.317476,71.4832364 C9.82778842,84.4833638 10.1480884,98.6883333 14.4978406,109.885122 C16.6806254,115.509026 19.8539673,120.27345 23.7509499,124.17447 C25.4256045,123.67605 27.1872542,123.395443 29.0082186,123.395443 C30.5622665,123.395443 32.1202687,123.593634 33.6288418,123.982166 C38.360186,125.200744 42.3303235,128.155943 44.7958421,132.314021 C45.4700537,133.43841 45.9940011,134.619704 46.3973418,135.830433 C49.2503838,136.142436 52.4177943,136.328853 55.9153906,136.328853 C59.760967,136.328853 63.1735453,136.150285 66.2203491,135.865754 C69.8939126,135.208389 73.5892248,134.201738 77.258834,132.818328 C90.3298395,127.883185 100.502328,119.205968 106.202481,108.737186 C106.914258,108.49975 107.624059,108.264276 108.321996,108.020953 C126.940913,101.604286 126.940913,98.3390468 126.940913,96.7692201 C126.938936,93.278318 122.531846,91.7124158 111.22249,91.1786747 Z M48.0759507,84.7345361 C48.0759507,87.5818093 45.7349932,89.8894546 42.8463623,89.8894546 C39.9636628,89.8894546 37.6246824,87.579847 37.6246824,84.7345361 L37.6246824,80.9610652 C37.6246824,78.113792 39.9636628,75.8061467 42.8463623,75.8061467 C45.7349932,75.8061467 48.0759507,78.113792 48.0759507,80.9610652 L48.0759507,84.7345361 Z M82.9214205,77.8626197 C82.9214205,75.0133842 85.2604009,72.7077012 88.1490318,72.7077012 C91.0396399,72.7077012 93.3786203,75.0133842 93.3786203,77.8626197 L93.3786203,81.6321661 C93.3786203,84.4833638 91.0396399,86.7870845 88.1490318,86.7870845 C85.2623781,86.7870845 82.9214205,84.4814016 82.9214205,81.6321661 L82.9214205,77.8626197 L82.9214205,77.8626197 Z M106.870761,103.923705 C94.6064368,108.152426 80.8592425,111.429439 77.2192908,111.429439 C71.0070537,111.429439 65.9554096,107.934613 65.9554096,103.639174 C65.9554096,99.3417736 71.0090309,95.8430223 77.2192908,95.8430223 C78.5281708,95.8430223 80.8315623,95.7704179 83.741942,95.6781905 C85.64397,95.619322 87.8030288,95.5486798 90.1163062,95.4878491 C90.9328733,99.0827522 92.1330095,100.646692 94.0132887,100.646692 L94.0152659,100.646692 C95.7057378,100.627069 96.7239752,99.2907543 97.487159,96.9929204 C98.2859317,99.5223037 99.3911642,100.646692 100.986732,100.646692 C103.046933,100.623145 104.106691,98.6373139 104.931167,95.3367532 C107.111974,95.3661875 109.130655,95.4211314 110.955574,95.5055096 C118.089167,95.8371355 120.965935,96.5671049 122.086985,97.0125432 C120.958027,97.9956472 117.454499,100.277783 106.870761,103.923705 Z" id="Shape"></path>
                        </g>
                    </g>
                </g>
            </g>
        </g>
    </g>
</svg>