<?xml version="1.0" encoding="UTF-8"?>
<svg width="73px" height="110px" viewBox="0 0 73 110" version="1.1" xmlns="http://www.w3.org/2000/svg" xmlns:xlink="http://www.w3.org/1999/xlink">
    <!-- Generator: sketchtool 64 (101010) - https://sketch.com -->
    <title>A81CAB00-31A8-4772-A22D-978CFF6B7AE6</title>
    <desc>Created with sketchtool.</desc>
    <g id="Page-1" stroke="none" stroke-width="1" fill="none" fill-rule="evenodd">
        <g id="Game" transform="translate(-1333.000000, -471.000000)" fill="#000000" fill-rule="nonzero">
            <g id="time" transform="translate(685.000000, 445.000000)">
                <g id="noun_Time_2027684" transform="translate(648.000000, 26.000000)">
                    <path d="M66.7540107,0 L6.2689525,0 C2.8474363,0 0,2.77291667 0,6.1875 L0,16.9354167 C0,20.3270833 2.75558352,23.1 6.20006291,23.1229167 L6.20006291,29.5166667 C6.20006291,33.5041667 7.9911922,37.2166667 11.1141869,39.7145833 L30.1966027,54.93125 L11.5045612,69.36875 C8.28971375,71.8666667 6.42969487,75.625 6.42969487,79.68125 L6.42969487,86.8541667 L6.2689525,86.8541667 C2.8474363,86.8541667 0,89.65 0,93.0645833 L0,103.8125 C0,107.227083 2.8474363,110 6.2689525,110 L66.7310475,110 C70.1525637,110 73,107.227083 73,103.8125 L73,93.0645833 C73,89.7645833 70.2444165,87.0604167 67.029569,86.8770833 L67.029569,79.7729167 C67.029569,75.7166667 65.1006606,71.8208333 61.86285,69.36875 L42.8263605,54.9083333 L61.86285,39.7145833 C64.9858446,37.2166667 66.7769739,33.5041667 66.7769739,29.5166667 L66.7769739,23.1229167 C70.2214533,23.1 72.9770368,20.3270833 72.9770368,16.9354167 L72.9770368,6.1875 C73.0229632,2.77291667 70.1755269,0 66.7540107,0 Z M65.2154766,94.6458333 L65.2154766,102.208333 L7.80748663,102.208333 L7.80748663,94.6458333 L65.2154766,94.6458333 Z M57.1553948,75.5791667 C58.4642969,76.5645833 59.2450456,78.1458333 59.2450456,79.7729167 L59.2450456,86.8541667 L14.2371815,86.8541667 L14.2371815,79.7270833 C14.2371815,78.1 15.0179302,76.5645833 16.3038691,75.55625 L36.5344448,59.9041667 L57.1553948,75.5791667 Z M59.0154137,29.5395833 C59.0154137,31.14375 58.2805914,32.65625 57.0176156,33.6645833 L36.5114816,50.0041667 L16.0053476,33.6416667 C14.7423718,32.6333333 14.0075495,31.14375 14.0075495,29.5166667 L14.0075495,23.1458333 L59.0154137,23.1458333 L59.0154137,29.5395833 Z M65.2154766,15.3541667 L7.80748663,15.3541667 L7.80748663,7.79166667 L65.2154766,7.79166667 L65.2154766,15.3541667 Z" id="Shape"></path>
                </g>
            </g>
        </g>
    </g>
</svg>